<?xml version="1.0" encoding="UTF-8"?>
<svg id="Capa_1" xmlns="http://www.w3.org/2000/svg" version="1.1" viewBox="0 0 100 200">
  <!-- Generator: Adobe Illustrator 29.0.0, SVG Export Plug-In . SVG Version: 2.1.0 Build 186)  -->
  <defs>
    <style>
      .st0 {
        fill: #ddd7c9;
      }

      .st1 {
        fill: #f7f6ed;
      }

      .st2 {
        fill: #d9d3c7;
      }

      .st3 {
        fill: #dbd2be;
      }

      .st4 {
        fill: #beb6a8;
      }

      .st5 {
        fill: #d4cec3;
      }

      .st6 {
        fill: #ebe8dd;
      }

      .st7 {
        fill: #fbf9f0;
      }

      .st8 {
        fill: #dbd6cc;
      }

      .st9 {
        fill: #f8f6ea;
      }

      .st10 {
        fill: #d6cfc1;
      }

      .st11 {
        fill: #f1eee4;
      }

      .st12 {
        fill: #e1dac8;
      }

      .st13 {
        fill: #dcd7cb;
      }

      .st14 {
        fill: #f6f3ee;
      }

      .st15 {
        fill: #eeeadc;
      }

      .st16 {
        fill: #cdc7b9;
      }

      .st17 {
        fill: #fefef9;
      }

      .st18 {
        fill: #f3f2e9;
      }

      .st19 {
        fill: #cec1ac;
      }

      .st20 {
        fill: #f0ecdf;
      }

      .st21 {
        fill: #ece7d9;
      }

      .st22 {
        fill: #e7e1d0;
      }

      .st23 {
        fill: #e7e2d6;
      }

      .st24 {
        fill: #f2efe5;
      }

      .st25 {
        fill: #fffff9;
      }

      .st26 {
        fill: #d3cdbe;
      }

      .st27 {
        fill: #fdfcf4;
      }

      .st28 {
        fill: #cdc6ba;
      }

      .st29 {
        fill: #cac3b4;
      }

      .st30 {
        fill: #e5e0d4;
      }

      .st31 {
        fill: #e4dfd4;
      }

      .st32 {
        fill: #c3bcae;
      }

      .st33 {
        fill: #eae7df;
      }

      .st34 {
        fill: #e0dbd1;
      }

      .st35 {
        fill: #ece8dd;
      }

      .st36 {
        fill: #ebe7d9;
      }

      .st37 {
        fill: #dcd3bf;
      }

      .st38 {
        fill: #e5decc;
      }

      .st39 {
        fill: #c3b49f;
      }

      .st40 {
        fill: #cfc4ae;
      }

      .st41 {
        fill: #cbbea9;
      }

      .st42 {
        fill: #e5e1d7;
      }

      .st43 {
        fill: #eae6da;
      }

      .st44 {
        fill: #b6ad9f;
      }

      .st45 {
        fill: #d9d2c1;
      }

      .st46 {
        fill: #f9f8f0;
      }

      .st47 {
        fill: #d7cfbe;
      }

      .st48 {
        fill: #d1c8b6;
      }

      .st49 {
        fill: #fff;
      }

      .st50 {
        fill: #ece8da;
      }

      .st51 {
        fill: #e7e3db;
      }

      .st52 {
        fill: #ded6c2;
      }

      .st53 {
        fill: #ddd8ce;
      }

      .st54 {
        fill: #dfdbd0;
      }

      .st55 {
        fill: #efede5;
      }

      .st56 {
        fill: #ded7c4;
      }

      .st57 {
        fill: #f1eee3;
      }

      .st58 {
        fill: #e0dbd0;
      }

      .st59 {
        fill: #fefdf4;
      }

      .st60 {
        fill: #e0d9c8;
      }

      .st61 {
        fill: #d7cdb9;
      }

      .st62 {
        fill: #f2efe9;
      }

      .st63 {
        fill: #efebde;
      }

      .st64 {
        fill: #e9e5dd;
      }

      .st65 {
        fill: #c7baa5;
      }

      .st66 {
        fill: #dfd9c9;
      }

      .st67 {
        fill: #d1c7b5;
      }

      .st68 {
        fill: #eae6d8;
      }

      .st69 {
        fill: #d9d1bf;
      }

      .st70 {
        fill: #d7d1c5;
      }

      .st71 {
        fill: #f6f4ef;
      }

      .st72 {
        fill: #d4cec0;
      }

      .st73 {
        fill: #ccc7bc;
      }

      .st74 {
        fill: #d4cfc5;
      }

      .st75 {
        fill: #f4f3ec;
      }

      .st76 {
        fill: #e8e7e5;
      }

      .st77 {
        fill: #dcd4c0;
      }

      .st78 {
        fill: #efeeeb;
      }

      .st79 {
        fill: #e8e4d9;
      }

      .st80 {
        fill: #efece2;
      }

      .st81 {
        fill: #dcd5c4;
      }

      .st82 {
        fill: #e3ded1;
      }

      .st83 {
        fill: #e3dfd5;
      }

      .st84 {
        fill: #efece3;
      }

      .st85 {
        fill: #e2ddd1;
      }

      .st86 {
        fill: #f0ede6;
      }

      .st87 {
        fill: #dcd6c5;
      }

      .st88 {
        fill: #e7e2d5;
      }

      .st89 {
        fill: #efede9;
      }

      .st90 {
        fill: #d0cabc;
      }

      .st91 {
        fill: #dbd5c9;
      }

      .st92 {
        fill: #dad6cb;
      }

      .st93 {
        fill: #f3efe4;
      }

      .st94 {
        fill: #d0c6b2;
      }

      .st95 {
        fill: #b6ab9c;
      }

      .st96 {
        fill: #d8d3c7;
      }

      .st97 {
        fill: #f8f7ef;
      }

      .st98 {
        fill: #d9d0bc;
      }

      .st99 {
        fill: #ded7c9;
      }

      .st100 {
        fill: #c5beb0;
      }

      .st101 {
        fill: #d5cdbd;
      }

      .st102 {
        fill: #d5d0c5;
      }

      .st103 {
        fill: #c2baac;
      }

      .st104 {
        fill: #d4cbb9;
      }

      .st105 {
        fill: #d2cbbe;
      }

      .st106 {
        fill: #ccc6ba;
      }

      .st107 {
        fill: #f3f2eb;
      }

      .st108 {
        fill: #f7f7ef;
      }

      .st109 {
        fill: #d4ccbc;
      }

      .st110 {
        fill: #d4cab8;
      }

      .st111 {
        fill: #d5cbba;
      }

      .st112 {
        fill: #edebe2;
      }

      .st113 {
        fill: #f5f2e8;
      }

      .st114 {
        fill: #ece8de;
      }

      .st115 {
        fill: #e8e2da;
      }

      .st116 {
        fill: #f4f3ed;
      }

      .st117 {
        fill: #dfd9cc;
      }

      .st118 {
        fill: #d4c9b3;
      }

      .st119 {
        fill: #eae7de;
      }

      .st120 {
        fill: #f7f5ea;
      }

      .st121 {
        fill: #cdc1ac;
      }

      .st122 {
        fill: #dbd4c5;
      }

      .st123 {
        fill: #d6cfc0;
      }

      .st124 {
        fill: #e6e1d7;
      }

      .st125 {
        fill: #f6f4ed;
      }

      .st126 {
        fill: #cec2ad;
      }

      .st127 {
        fill: #fffffc;
      }

      .st128 {
        fill: #edeae1;
      }

      .st129 {
        fill: #f2f1ed;
      }

      .st130 {
        fill: #f4f4ee;
      }

      .st131 {
        fill: #d3c8b3;
      }

      .st132 {
        fill: #dcd5c3;
      }

      .st133 {
        fill: #e0dacc;
      }

      .st134 {
        fill: #d5d1c6;
      }

      .st135 {
        fill: #e7e3d7;
      }

      .st136 {
        fill: #dcd6c7;
      }

      .st137 {
        fill: #ece9dd;
      }

      .st138 {
        fill: #d7d0c0;
      }

      .st139 {
        fill: #d1cbbf;
      }

      .st140 {
        fill: #eae4d6;
      }

      .st141 {
        fill: #e4decd;
      }

      .st142 {
        fill: #dbd6ca;
      }

      .st143 {
        fill: #e4dfd2;
      }

      .st144 {
        fill: #c4bdb1;
      }

      .st145 {
        fill: #d2c8b6;
      }

      .st146 {
        fill: #d9cfbb;
      }

      .st147 {
        fill: #d1c6b1;
      }

      .st148 {
        fill: #fbf9ef;
      }

      .st149 {
        fill: #fcfbf4;
      }

      .st150 {
        fill: #d0c4ae;
      }

      .st151 {
        fill: #f2eee2;
      }

      .st152 {
        fill: #d5d0c3;
      }

      .st153 {
        fill: #e1dccf;
      }

      .st154 {
        fill: #d5ccba;
      }

      .st155 {
        fill: #d4c9b5;
      }

      .st156 {
        fill: #dcd6c8;
      }

      .st157 {
        fill: #fdfcf6;
      }

      .st158 {
        fill: #ded8c9;
      }

      .st159 {
        fill: #fcfcf8;
      }

      .st160 {
        fill: #d4cec1;
      }

      .st161 {
        fill: #ece8db;
      }

      .st162 {
        fill: #d6ccb7;
      }

      .st163 {
        fill: #e5dfce;
      }

      .st164 {
        fill: #ddd6c3;
      }

      .st165 {
        fill: #fffffd;
      }

      .st166 {
        fill: #e6e2d7;
      }

      .st167 {
        fill: #e7e5e2;
      }

      .st168 {
        fill: #ddd8cb;
      }

      .st169 {
        fill: #d9d3c5;
      }

      .st170 {
        fill: #d5cec3;
      }

      .st171 {
        fill: #c7c0b2;
      }

      .st172 {
        fill: #e3ded3;
      }

      .st173 {
        fill: #e4e0d4;
      }

      .st174 {
        fill: #f6f3e7;
      }

      .st175 {
        fill: #dfd8c9;
      }

      .st176 {
        fill: #faf9f1;
      }

      .st177 {
        fill: #c8c2b5;
      }

      .st178 {
        fill: #d3cdc1;
      }

      .st179 {
        fill: #e9e6da;
      }

      .st180 {
        fill: #fffffe;
      }

      .st181 {
        fill: #c6c2b9;
      }

      .st182 {
        fill: #dfdad0;
      }

      .st183 {
        fill: #e2dbc9;
      }

      .st184 {
        fill: #e1dcd1;
      }

      .st185 {
        fill: #fffff8;
      }

      .st186 {
        fill: #f4f2ec;
      }

      .st187 {
        fill: #d9d6ca;
      }

      .st188 {
        fill: #f9f8ef;
      }

      .st189 {
        fill: #dfdad1;
      }

      .st190 {
        fill: #b8aa94;
      }

      .st191 {
        fill: #dbd5c8;
      }

      .st192 {
        fill: #f1efe6;
      }

      .st193 {
        fill: #f5f3eb;
      }
    </style>
  </defs>
  <path class="st62" d="M89.8,41c.1.3.2.7.2,1,0,0,0,.1,0,.2-1.1,9.5-3.5,19.4-6.7,28.5h-.2c-.2-.3-.3-.4-.2-.6l-1.2,2.5c-.3.9-.8,1.6-1.5,2-.5,1-1.2,1.9-2.1,2.7-.7,0-1.4.3-2,.7-1.1,1.2-3.9,2.6-5.6,2.1s-.6-.5,0-.8c-.3-.5.6-1.5,1-1,.7.4,1,.4,1.2,0,.4,0,.7-.3.9-.6,1,0,1.5-.5,1.5-1.5,3.3-1.8,6.1-3.9,7.1-7.8l.5-.3c-.1-.4.1-.7.5-.8,0-.9.2-1.6.6-2-.1-.6,0-1,.5-1.2,0-.4,0-.7.3-1-.3,0-.3-.2,0-.3,0-1.1.3-2.3.9-3.5,1.2-4.2,2.1-8.4,2.9-12.6,0-.8,0-1.9.3-2.6,0-.8.2-1.5.5-2.2-.2-.8.1-1.6.7-.7Z"/>
  <path class="st14" d="M83.9,19.8h-.3c-1.6-1.5-3.2-2.9-4.9-4.2-.7-.2-1.4-.6-2.1-1-.5.2-1-.1-1.2-.6-.1,0-.2,0-.4,0-4.1-.8-8.7-1.3-12.8-1.1-2.2.5-4.4,1-6.6,1.5h-.3c-4.8,1.3-9.9,2-14.9,1-2.4-.6-4.7-1.2-7-1.8-.6,0-1.3,0-1.9-.2,0,.1,0,.1-.2,0-1.8,0-3.7,0-5.6,0l-.7.2c-.2.2-.9.4-1,.2l-.5.2c0,.1-.1.1-.2,0l-1,.3c0,.3-.3.3-.3,0l-.3.2c0,.2-.1.2-.2,0l-.5.3c0,.1-.1.1-.2,0l-1.1.5c-.7.4-1.2.8-1.5,1.5-.9,0-1.6.4-2.2,1.2-1.1,1-2.1,2-3.1,3,.1,0,.1.1,0,.2.3.2.1.3-.2.2-.3.4-.6.8-.9,1.2.4.3.2.8-.3.7-.5.7-.9,1.5-1.2,2.3,0,.2,0,.6-.3.5.8-2.6,2.5-5.3,4.3-7.3,5.8-6.6,15.1-6.5,23.1-4.8s3.5,1.1,5.1,1.3,3.7.5,5.4.3.2-.3.4-.4c.4,0,.8.1,1.2.1,5-.4,9.9-2.8,15.1-3.1,8-.4,13.8.8,19.3,6.8.2.2.4.4.4.7Z"/>
  <path class="st75" d="M89.9,35.9l-.2.2c.1.6.2,1.5,0,2.1-.6,1-1,.6-1-1h-.2c.1-.9-1.2-6.4-2-6-.5.6-.8.7-1.1.2-1.1-.1-1.7-.5-1.7-1.2-.6-.5-.8-1-.7-1.5.4-.2.8-.3,1.2-.5,0-.3-.2-.6-.5-.9.3-.4.3-.7,0-.9.9-2.2,2.4.2,2.7,1.4l.3.4c.5.1.8,1,.5,1.4.6,1.6,1.1,3.3,1.5,4.9v-1.4c.2,0,.3-.2.2-.4-.3,0-.3-.2,0-.3-.1-.3-.2-.6-.2-.9-.2,0-.2-.1,0-.2l-.2-.7c-.4,0-.4-.1-.2-.5-.2,0-.2-.1,0-.2-.1-.8-.3-1.7-.7-2.4h-.4c-.5-1.7-1.2-3.3-2.1-4.7l.2-.5c2.6,3.8,4.2,9,4.3,13.7Z"/>
  <path class="st124" d="M78.6,15.7c1.9,1,3.8,2.5,5.2,4.2s1.2,1.6,1.7,2.4c.3,1.3,1.2,2.4,1.7,3.5s.3,1.1.5,1.6c.4.8.6,1.6.7,2.4,0,0,0,.1,0,.2,0,.6-.3.8-.6.2-.9-2.5-2.1-4.8-3.4-7.1-.5-.9-1.5-1.1-2.8-.6h-.3c-.2-.2-.1-.2,0-.3l.2-.4c.3,0,2.4-.3,2.3-.6-.5-1.2-2.7-3.1-4-3.6l-.2-.6c-.3.2-.6,0-.9-.6-1.4-.3-2.8-.2-2.7,1.6.7.2.7,1,.5,1.5.7.6,1.1,1.4,1.5,2.3.5,0,.9.2,1.3.5,0-.3.2-.3.3,0,.2,0,.1.1,0,.2-.7.1-1.5.1-2.3,0-1.4-.5-2.3-1.8-2.2-3.4-.8-1.4-1.2-3.3.7-4.1,0-.5.2-.7.7-.5.7.4,1.3.7,2.1.9Z"/>
  <path class="st74" d="M26.2,83.5c0-.2-2.8-1-3.3-1.2-.8-.4-2.2-1.5-2.8-2.1-.3-.3-.6-.6-.9-1-.4-.5-1.2-1.6-1.4-2.1s0-.1.2-.2c-.4-.7-.6-1.2,0-1.9,1.9-2.2,4.4.2,3.3,2.5.9.2,1.2.5,1,1,.2.4,0,.6-.5.7,0,.4-.2.7-.8.9,1.3,1.1,2.2,1.7,3.8,2.3.4,0,2.1.5,2.1.9s-.3.7-.4.8c0,.1-.1.1-.2,0"/>
  <path class="st186" d="M9.5,27.1l.2.3c-.4,1.9-.8,3.8-1.3,5.7l-.4.5v2.2c.2.5.2.9-.1,1.1,0,2.2,0,4.3,0,6.5l.2.2c.3,4,1.3,8.1,2.4,11.9l.4.5c1.4,5.2,3,10.3,4.7,15.3.5.4.8,1,1,1.8.4.7.6,1.4.5,2,.5.1.8.6.8,1.3l.2.5c.2.6,1.7,2.8,2.1,3.3-2.3-1.6-3.3-4.6-4.4-7.1-3.1-7.4-8.2-22.8-8.5-30.6.2-2,.2-4.3,0-6.2.1-2.8,1.1-6.9,2.3-9.5.2,0,.2.2,0,.5Z"/>
  <path class="st51" d="M83,70.6c0,.1.1.2.1.3-.7,2.3-1.9,4.4-3.1,6.5,0,0-.1.1-.2.2-.1.2-.2.2-.3.2-.2-.2-.2-.6,0-1-1.1,1.5-2.9,3-4.8,2.8-.2-.8,1.4-1.9,2.3-1.6,1.3-.8,2.3-1.9,3-3.3,1.2-1.7,2.1-3.9,2.9-5.7s.5-.8.6-1.3c.4.1.3.2.2.5-.1.7-.5,1.7-.7,2.5Z"/>
  <path class="st71" d="M89.9,42.2c.1,5.2-2.3,14.8-3.9,20s-2.9,10.8-6.1,15.2c.7-1.5,1.6-2.8,2.2-4.3s.5-1.6.8-2.4c.3-.1.4-.4.5-.7,2.8-8.9,5-17.7,6.1-27s0-.6.4-.8Z"/>
  <path class="st134" d="M74.8,79.4c1.3-.1,2.5-.9,3.4-1.7s1.3-1.5,1.4-1.6c.8-.2.2,1.1,0,1.6-.6,1.1-1.6,2.1-2.6,2.9-.1,0-.3.1-.3.2-1.7,1.1-2.6,1.4-4.3,2.1s-.4,0-.2.5c-.2.3-1.1-.2-.6-.7,1.3-.7,2.7-1.3,4.1-1.9.5-.3,1.3-1.3.4-1.3-.5.3-1,.3-1.4.2-.4-.3,0-.7.3-.3Z"/>
  <path class="st64" d="M79.9,77.5c-1.1,1.5-1.4,2-3,3.1l2.6-2.9.3-.2Z"/>
  <path class="st76" d="M7.2,42.3c0-2,0-4.3,0-6.2.3.2.2.7.2.9,0,1.4,0,2.9,0,4.3s.1.8-.2.9Z"/>
  <path class="st167" d="M89.9,42c0-.1-.2-.6-.2-1-.4-.9-.4-1.8,0-2.8,0-.6,0-1.5,0-2.1,0,0,.1,0,.2,0,0,2,0,3.9,0,5.9Z"/>
  <path class="st79" d="M9.5,27.1c0-.2,0-.4,0-.5,0-.1.1-.2.2-.3s.2-.3.3-.5c0-.1.1-.1.2,0,.5.4,0,1.7-.7,1.4Z"/>
  <path class="st86" d="M89.9,36.1h-.2c0,0,0-.2.2-.2,0,0,0,.1,0,.2Z"/>
  <path class="st176" d="M77.9,26.2c-.8-.3-.8-2.4,0-2.7,1.4-.6,4.2,2.9,4.8,4l-.2.4.3.5c.2-.2.3-.1.2.2.3.5.8.9,1,1.3s0,.5,0,.6c.1.1,1.6.6,1.9.5l-.3.3c.5,0,.5-.8,1.2-.6,1.6,1.7,1.5,4.1,1.9,6.3.4,1.3.4,2.4.4,3.8-.2.2-.2.5,0,.9-.6.4-.5,1.3-.5,1.9h-.2c0,.2-.3,2.3-.3,2.7-.5,3.3-1.2,6.5-2.2,9.6-.4,2.1-.9,4.1-1.9,6,0,.1.2.3.3.5,0,.1,0,.2,0,.3-.1.5-.4.9-.8,1.2.2.9,0,1-.7,1.4.4,1.2.2,1.8-.5,1.9,0,.3,0,.5-.3.7-1.1,2-4.1,6.2-6.5,6.2s-1.3-.2-1.3-.7c-.2-.7,0-2.1.9-1.9,1,1.1,2.9-.3,3.2-1.6l1.1-.9c.3-.9.6-1.7,1.1-2.5.5,0,1.1-.6.9-1.1-.6-.9-.4-1.8,0-2.7,1.7-3.7,3.2-7.5,4.4-11.5,1.3-1.8,1.6-3,2-5.2.7-4.5,1.1-8.7-.7-13-1.2,1-1.7,1.2-2.5-.3l-.3-.3c-.6-.4-.9-1.1-1.1-2-.8-1.6-2.3-4.6-3.8-5.6s-.9-.2-1.2.1c.3.2.3.3,0,.3.1.2.1.4,0,.5,0,.2-.1.1-.2,0Z"/>
  <path class="st116" d="M82.1,68.1c0-.4,0-.5.3-.2-.4,1.4-1.1,3.1-2,4.3s-1.7,1.7-3.1,2.6-.8.8-1.3,1-.9.3-.9.4c-.1.2,0,.8-.4,1.2s-1,.2-1.2.4-.1.6-.2.6c0,0-.5-.2-.6-.2s-.1.4-.4.5-.8-.2-1.1,0c0-.2,0-.5,0-.7-.2,0-.1,0,0-.2l.4-.5c0-.5.5-1.7,1.1-1.6,0-.5,0-.6.3-.5,0-.2.1-.1.2,0,.6,0,1.4-.4.3-.9-.4-.3-.1-.9.3-.9,0-.2.1-.1.2,0,.8.3,1.9.7,2.4-.2l.2.3c0-.5.7-.6.8-.7,1.3-1.2,2.3-2.4,3.4-3.8s.5-1.2.8-1.2.2.1.3.1Z"/>
  <path class="st91" d="M64,76.4c.4-1.2,5.2-2.8,5.9-2.1s0,.8-.1,1.1c1-1.3,2.8-.5,1.7,1.3.6.2.5.6-.2,1.2,0,0,0,.1,0,.2-.5.2-.7.8-1,1-.2.4-.3.4-.3.2-.5,0-1-.9-.7-1.4-.4-.5-.6-1-.5-1.8v-.4c-1.6.3-3.1.5-4.5.8l-.2-.2Z"/>
  <path class="st125" d="M84.4,62.6s-.4-.2-.7.2c-.2-1.1.8-2,1.1-2.9s.5-2.6.9-3.8c.9-3.1,1.9-6.2,2.5-9.5.2,2.8-.9,5.4-1.6,8.1-.6,2.4-.9,4.5-1.8,6.8s0,1-.4,1.2Z"/>
  <path class="st64" d="M74.8,79.4c-.1.1-.3.1-.3.3-1.4.6-2.9.9-4.5.8-.4.5-2.5.7-1.6-.2.3-.5,1-1.3,1.6-.9,0,0,.3-.1.3-.2-.3.3,0,.5.3.5,3.5.5,4.1-2,6.8-2.9s.5.1.6,0c.7-.5,1.6-1.6,2.1-2.3-.2.9-2.1,3.4-2.9,3.6s-.5-.2-.9,0-1.1,1-1.4,1.3Z"/>
  <path class="st125" d="M84.4,62.9c0,.3.1,1,0,1.2s-.5.3-.6.5.2.6,0,.8-.3.1-.5.3c-.2.3,0,.7-.1,1s-.5,1-.9,1.3-.2.1-.3.2l-.2-1h.9s0-.5,0-.5h-.5c.5-.4,0-.8.3-1.2s.8-.3.8-.4c.1-.1-.3-.7,0-1s.9-.8,1.1-1Z"/>
  <path class="st71" d="M88.7,37.1c0,.5.2,1,.3,1.5l.3-.7.3.3c0,.9,0,1.8,0,2.8-1.5-.2-.1,1-.2,1-1.3-.2-.6,1.8-.7,1.9s-.3,0-.3,0c-.2-.9.3-1.7.3-2.5s-.2-.6-.2-.9c0-1.1.2-2.2,0-3.4Z"/>
  <path class="st15" d="M75.3,14.1c.1.5-.1.6-.6.5,0,1.1-.8,1.8-1.6,2.3l1.7,1.8c.7.7.7,1.5-.3,1.7.3.8-1,.2-1.4,0-.3.3-.7,0-.7-.3-.2,0-.1-.1,0-.2.2-.3.6-.4,1.2-.4,0-.3-2.8-3-3.3-1.6.3,0,.5.3.5.6.9.3,1.3.7,1.1,1.2-.4,0-.9,0-1.4-.3-.6-.3-1-.6-1-1l-1.2-1.3c-1.6-.3-2.9-.3-4.4.2-.7-.2-1.4-.1-2.1.1l-2.3.9c-.8.3-2.5.7-2.2-.6l2.7-1c-.1,0-.1-.1,0-.2.9-.2,1.7-.5,2.3-.9l.5.2c1.6-.3,3.3-.6,4.8-1.1.2-.6-.4-.8-.9-1-1.6-.4-3-.5-4.6-.6.2-.3.7-.2,1-.2,4.2,0,8.3-.2,12.3,1.2Z"/>
  <path class="st114" d="M20.8,15c.6,0,.8,1,.5,1.4-.9,1.1-1.9,2.1-3,2.9-.4.9-.8,1.4-1.7,1.9-.8.8-1,1.3.3,1.6l.2.3c.7.8-1.9.8-2.3.3-.9,1-1.3,2.3-1.4,3.7-.2,1.2-.6,2.4-1.2,3.4.4.9.2,3.5-1.1,3.5s-.1-1.3.5-1.8c-.3-.2-.4-.5-.4-.8l-.4-.2c0-1.1-.2-2.1-.5-3.1l.3-.7c0,0-.2-.1-.2-.2.3-1.7,1-2.9,2.1-4.2.7-.9.7-1.5,0-1.9v-.2l2-2.1c.5.3.8.4,1.4.1,1-.4,3.3-2.2,3.1-3.5l1.6-.8s.1,0,.2,0Z"/>
  <path class="st43" d="M24.9,13.8c.1-.1.2-.1.3,0,.5.4-.2.9-.5.3-.6.3-1.7.8-1.5,1.5-1,.6-2.5,2.6-2.9,3.7.4-.2.7-.2,1,0l.2.4c-.9,1.1-2,2.1-3.3,2.9-.4.6-.7.8-1.1.7-.7,0-1.6-.5-1.5-1.2s.6-.9.6-.9c.3-.3,1-.6,1.3-1s.1-.6.4-.9c.6-.7,1.3-1,2.1-1.9s1-1,1-1.3c0-.4-.4-.9-.3-1.1l.5-.3c0,0,.1,0,.2,0l.3-.2c0,0,.2,0,.3,0l1-.3c0,0,.1,0,.2,0l.5-.2c.4,0,.6-.1,1-.2Z"/>
  <path class="st36" d="M75.3,14.1c1.2.4,2.2,1,3.3,1.6-.5.3-2-.9-2.2-.9s-.2.5-.3.6-.4.1-.6.3c-1,1-.7,1.8-.2,2.9s.2.5.2,1.3c.2,1.6,1,1.5,1.8,2.7l-1.1.2c-.2,1.1-.6,1.5-1.2,1.1,0,.2-.1.1-.2,0-.5,0-.6-.4-.2-.7v-.2c-.9-.9-1.9-1.7-2.9-2.6v-.3c0-.2.3-.2.4,0,.4.1.4.2.7.3.7.4,1.1.4,1.4,0,0,0,0-.2,0-.3s.4-.1.5-.3c.2-.7-2.5-2.4-2.3-3.1s1.1-.4,1.5-1.3.1-.7-.1-1.4c0,0,1,.6,1.2.2Z"/>
  <path class="st84" d="M20.6,15c-.3.4-.8.4-1.1.7s0,1.1-.4,1.5-1.5,1.3-1.7,1.5-1.3.9-1.4.9c-.2,0-1.4.3-1.4.3,0,0,.1-.5,0-.5l-2,1.9c1.1-1.2,3-3.8,4.4-4.5s.5,0,.8,0,.1-.6.4-.8c.5-.3,1.8-.7,2.3-.9Z"/>
  <path class="st23" d="M62.1,13.1c1.8,0,3.3,0,5,.3s.5-.2.6-.1-.1.2,0,.3c.2.3.9,1.1.1,1.4-1.3.4-3.5.4-4.9.7v-.4c.1,0,2.9-.7,2.9-.7,1.8-.6-2.6-1.1-3.1-1-2.4.4-4.7,1-7.1,1.5-.4,0-.7,0-1.1-.1,0-.2.2-.4.7-.5,2.3-.5,4.6-1.3,7-1.4Z"/>
  <path class="st115" d="M55.2,14.5l-.7.5-.6.5c-6.1,1.2-12.3,1.6-18.2-.6-1,0-1.8-.3-2.4-.8-.2,0-.1-.1,0-.2-.2,0-.1-.1,0-.2,2.8.4,5.4,1.4,8.1,1.9,4.9.8,9.1-.2,13.8-1.2Z"/>
  <path class="st79" d="M12.6,21.4c.1,0,.2-.1.4,0,1.1.3,0,2-.4,2.6s-1.1,1.2-1.3,1.6c-.4.7-.2,1.6-.6,2.2-.1.7-.3,1-.7.9-.2-.8,0-1.7.5-2.7l-.3-.3c.2-.7.6-1.4,1-2.1.1-.2.2-.5.3-.7.2-.4.5-.8.9-1.2,0,0,.1-.2.2-.2Z"/>
  <path class="st43" d="M31.2,13.6c-.2.1-.4.1-.5,0-1.1,0-2.2.2-3.3.2,0,.3-.2.3-.3,0-.5.1-1.3.4-1.6,0-.1,0,0-.1.2-.2,1.5,0,3.1-.1,4.6-.2s.8,0,1,.2Z"/>
  <path class="st43" d="M33.3,13.8v.2c-.1.1-.2.1-.3,0-.5,0-1,0-1.4-.2,0,.2,0,.1-.2,0-.2,0-.1-.1,0-.2.8,0,1.2,0,1.9.2Z"/>
  <path class="st84" d="M23.2,14.1c-.3.3-.7.3-1,.3.2-.4.7-.3,1-.3Z"/>
  <path class="st115" d="M31.2,13.6c0,0,.1,0,.2,0v.2c-.2.3-.5.3-.7,0-.2,0-.1-.1,0-.2.2,0,.3,0,.5,0Z"/>
  <path class="st84" d="M21.3,14.6c0,.3-.5.3-.5.3,0,0,0-.2.5-.3Z"/>
  <path class="st84" d="M11.6,22.8c.3-.6.3-.8.9-1.2l-.9,1.2Z"/>
  <path class="st84" d="M25.6,13.6l-.2.2c0,.2,0,.1-.2,0-.1,0-.2,0-.3,0,.1-.3.5-.2.7-.2Z"/>
  <path class="st84" d="M23.9,13.9l-.5.2c0,0,.2-.1.5-.2Z"/>
  <path class="st84" d="M10.2,25.5c.2,0,.2.1,0,.2h-.2c.4-.7.6-1.7,1.2-2.3-.3.7-.7,1.4-1,2.1Z"/>
  <path class="st84" d="M21.8,14.5l-.3.2s0-.1.3-.2Z"/>
  <path class="st113" d="M78.6,23.1c0-.2,0-.1.2,0,1,.1,1.7.8,2.3,1.6,1.2,1,2.3,2.2,3,3.4,0,0,.2.2.3.2v.2c-.6,0-.9.5-1.6.2,0,0-.1-.1-.2-.2l-.3-.5c-.8-1.3-1-1.6-2-2.8s-.2-.5-.3-.5c0,0-1.9-.8-2-.9-.5,0-.7.7-.7,1.1s.4.9.4,1.3c.6,1.6,0,2.8-.8,4.3-2.3,1-1.2,3.5-.4,5.3,0,.3,0,.9,0,1.2.2.8.4,1.7.6,2.5l-.3.4c-.2,0-.3,0-.5-.1-.8-.5-1.9-4.5-2-5.6-.3-1.8-.7-6.6,2-6.4.6-1.2.5-2.2.4-3.5s0-.9,0-1.1c.2-.3.8-.4,1.6-.2Z"/>
  <path class="st192" d="M78.8,23.1v-.2c1.5.3,2.5.4,3.9-.2.9-.2,1.6.3,2.2,1.5.7.9,1.7,2.5,2,3.6s0,.2,0,.4c-.6-.2-.5-.8-.7-1.3s-.5,0-.2-.4c-1-.2-1.1-1.3-1.9-.1,1.5.6.2.6,0,.8s1,1.1.2,1c-1.1-1-2.1-2.1-3.2-3.1s-1.1-1.5-2.2-1.9Z"/>
  <path class="st33" d="M84.6,23.1c1.7,2.4,2.7,4.5,3.7,7.3l.3-.3c0,.1.1.3.2.5l.2.7c0,0,0,.1,0,.2,0,.3,0,.6.2.9,0,.1,0,.2,0,.3.1.7,0,.8-.6.3l-1.1-3.5c-.2-.4-.3-.9-.5-1.4-.6-1.4-1.2-2.6-1.9-4-.3-.2-.7-.7-.5-1,0-.1.1-.1.2,0Z"/>
  <path class="st86" d="M87.3,29.5c.4.9.8,1.7,1.1,2.6s-.3.2.3.6.4.5.4-.1c.1.9.1,1.6.2,2.5s.3.5.3.8-.4.7-.6.2l-1.6-6.6Z"/>
  <path class="st86" d="M89.1,32.3c-.3-.1-.2-.6-.2-.9,0,.2.1.5.2.9Z"/>
  <path class="st33" d="M88.5,29.9c-.3-.8-.4-1.6-.7-2.4.5.5.6,1.4.8,2.1s0,.3,0,.3Z"/>
  <path class="st86" d="M88.9,31.3l-.2-.7c0,.2.1.4.2.7Z"/>
  <path class="st87" d="M79.7,17.1c.6.6.9.5,1.3.7s2,1.6,2.3,2c.4.5.5,1.1,1.1,1.4,0,.1-.5.6-.6.7-.6.2-1.7.4-2.4.5-.5.2-1.2.3-1.7.2-.1,0-.2,0-.3,0-1.1-.2-2.1-2.1-1.1-2.8l.2-.4c.8-.4,1.2-1.2.8-2l.4-.2Z"/>
  <path class="st143" d="M79.3,22.4c-2.2,0-1.3-.3-2.3-1.6s-.6-.7-.8-.9-.3,0-.3,0c0,0,.3-.3.3-.6,0-1.1-.5-.7-.6-.8s.2-2,.5-2.2.3.1.4,0c.3,0,1.4-.5,1.5-.4v.3c1.1-.3,1,.3,1.6.9-.2.5.2,1,0,1.6s-1,1.2-1.1.7c-.5-.3,0-.6,0-.4s0,.3,0,.4c.2.3.2.7.2,1l-.5-.3c0,1,.6,1.7,1.2,2.4Z"/>
  <path class="st50" d="M84.6,23.1h-.2c-.3-.2-.7-.3-1.1-.5-1.8.6-3.3.5-5.2.2-1.4-.3-1.9.2-1.5,1.3-.4,1.8-2.7.9-1.4-.3,1.1-.3.6-.8,1.2-1.1s.7,0,1,0c.7,0,1.5,0,2.3,0,.5-.2,1.2-.3,1.7-.2.8,0,1.7-.2,2.5-.3.4.1.5.8.6,1Z"/>
  <path class="st143" d="M81.4,22.3v.2c-.6,0-1.1.1-1.7.2v-.2c.6,0,1.2,0,1.7-.2Z"/>
  <path class="st100" d="M28.4,80.4c.6,0,.9,0,1,.3.3-.1.5-.4.5-.8.8-1.1,5.8,0,7,.6s.8.6.9,1.1c0-.3.3-.3.3,0h.2l.3.2c.3-.3,1.2-.2,1.4.2.4,0,.7.1,1,.2.8-.3,1.3-.3,1.6.2,4.3.7,8.6,1.1,12.8,1.1,1.3-.2,2.6-.3,3.8-.3.2,0,.1.1,0,.2,0,.1-.2.2-.3.2-2.3.4-4.9.6-7.2.5-3.2-.2-6.5-.5-9.8-.5-1.4-.1-2.6-.4-3.9-1.1-1.4-.2-9.4-1-10-.6-.3.9-.7,1.3-1.4,1.5.1,0,.1.1,0,.2.2,0,.1.1,0,.2.2.2.1.2-.2.2,0,.1-.1.1-.2,0,.5-.8-.1-.8-.6-1.1s-.3,0-.8-.2c-2.1-.6-2.3-.8-3.8-2.2s-.8-.2-.7-.9c.5.1.9-.4,1.2-.5l.6-.4c2.1.4,4.1,1,6,1.8Z"/>
  <path class="st2" d="M12.3,44.1c1.2,6.1,2.9,12.2,4.8,18.3,0,.7,0,1.4.3,2.1l.4.5c.6,2.1,1.3,4.2,2.1,6.3l-.2.7-.5-.2c.2.9.6,1.5,1.1,1.8l.5.2c.6,1.1,1.2,2.2,2.1,3.1v.5c.3.4.1.5-.3.5.1,0,.1.1,0,.2l-.2.2c0,.2,0,.2-.2.2-.1-.4-1.3-.7-1.4-.7-.2-.2.4-1.4.3-2-.3-2-4.2-1.6-3.3,1.1-.5-.4-.7-1.1-1-1.7l1.5-1.5-1.7-1.6c-.2-.4-.3-.7.1-.9.5,0,.8,0,.9,0-.6-2-1-4.1-1.4-6.2-.1-.1-.3-.2-.4-.4s-.2-.3-.2-.4c-1.5-4.7-2.8-9.4-3.9-14.2s-1.2-6.8-.5-7.6.3-.3.6-.2l.3,2Z"/>
  <path class="st106" d="M27.2,79.7c.3-.5,1.2,0,1.2.5.1,0,.1.1,0,.2-1.8-.6-3.8-.9-5.6-1.3s-.4-.4-1-.1c.2-.2.3-.5.5-.7s.1-.1.2-.2l.2-.2s0-.1,0-.2l.3-.2c1.4.8,2.8,1.5,4.2,2.1Z"/>
  <path class="st142" d="M8.3,45.8c.5-1,1.1.3,1.2,1,.2,1.5.8,2.8,1.8,3.9,0,3.6,1.4,7.3,2.7,10.7.4,1.6.9,3.1,1.7,4.5.9,3.2,1,1.6.3-.7l.4-.2c.2.8.5,1.8.7,2.6s1.5,4,.9,4.1-.6-.2-.9-.2l-.2-.3-.5-.2-2.1-3.9,1.1,3.5v.7c-.4-.2-.5-.5-.6-.8-1.7-4.7-3.3-10.1-4.6-14.9-.7-2-1.2-4.1-1.4-6.2l-.2-.7c-.3,0-.3-.3,0-.3l-.2-.5c-.2,0-.2-.1,0-.2,0-.2,0-.5-.2-.7-.2,0-.2-.1,0-.2,0-.1,0-.3,0-.5-.3.1-.4-.1-.2-.3Z"/>
  <path class="st64" d="M11.2,31.6c-.8.5-1.5,1.3-.8,2.2s.5.4.9.3c.8-.6,1-.3.8,1.1.6.1.5,1.5-.2,1.2-.2-.2-.3.4-.3.7.1.3-.5,2.8-.6,2.9-.5.5-1.9-.4-2.1-1,0-.7-.3-1.3-.6-1.7.2,1.1.4,2.5-.2,3.4,0,1-.1,1.9-.3,2.7.1-3.3-.2-6.7.2-9.9h.3c.4-1.2.8-2.4,1.2-3.6l.4-.2c-.1-.4,0-.7.2-1-.2,0-.1-.1,0-.2.1-.3.6-.7.7-.9-.2.7.3,1.3.4,2s0,1.4.1,2Z"/>
  <path class="st42" d="M11.9,36.5c.3,0,.3.2,0,.3-.1.2-.1.5,0,.7.3,0,.3.2,0,.3,0,.3,0,.5-.2.7-.1,1.6-.3,3.3-.6,4.9,0,.3-.3.6-.6.6s-1.6-.8-1.7-1.2c-.4-2.2-.6-1.4-.5.4l.2,2.3-.3.3c0,0,.2.2.2.3,0,.2,0,.4,0,.5,0,0,0,.1,0,.2.1.2.2.4.2.7,0,0,0,.1,0,.2l.2.5c0,.1,0,.2,0,.3l.2.7c.4,2.1.9,4.2,1.4,6.2-.4-.4-.5-1.1-.6-1.6-.8-2.8-2.1-7.8-2-10.6s.3-3.4.3-5-.3-1.1-.2-1.6c1.2.1,1.1,1.9,1.4,2.4s1.1.6,1.3.7c.6-.2.8-3.8,1.1-4.5.3,0,.2.8.2,1Z"/>
  <path class="st102" d="M15.4,71.3c-.7-2.2-1.6-4.9-2.2-7.1s-.1-.6,0-.9c.3,0,.4,0,.4.3.3,2.1,2.3,5.3,3.4,7.4s0,.6.2.7l1.7,1.6c0,.4-.9,1.1-1.3,1.5s-.3.4-.6.2c-.7-1.3-1.1-2.4-1.6-3.8Z"/>
  <path class="st83" d="M10,28.5c0,0,0,.1,0,.2-.2.3-.3.7-.2,1-.2.7-.6,1.6-.8,2.4s-.5,1.8-.5,2.1c0,.4.6,1.9.3,2.1s-.6,0-.7-.3c-.2-.7.1-1.8-.2-2.5.3-2.4,1.1-4.2,1.6-6.4.5-.3.5-.9.7-1.4s0-.1,0-.2c.6-.3.8-.9,1.1-1.4s.3-.6.3,0c-.7,1.5-1.1,2.8-1.6,4.4Z"/>
  <path class="st73" d="M71.9,83.7c-1.5-.7-3.2-1.1-4.8-1.2-.1.6-.6.6-1.1.4-.5.4-.9.4-1.1,0h-.3c0,.3-.3.2-.5,0-.5-.1-.4-.1,0-.3-.3-.1-.3-.4,0-.6-2.5.6-5,1.2-7.5,1.5s-7.3.2-7.8-.2,0-.5.2-.7c.3-.3,5.4-.8,6-.4l.2.4v.2c-.8,0-1.6.1-2.4.3.4-.2,3.3-.4,3.4-.2s0,.1.1.2c0-.2,0-.3.1-.3.4,0,4.2-.5,2.3-.2h-.1c-.2-.2-.1-.2,0-.3,0-.1.1-.3.3-.3,2.2-.3,4.2-.7,6.3-1.4.9-.2,2.1-.3,3-.2,0-.2.1-.2.2,0,0,0,0,.3.1.4s.6-.2.9-.2c2,0,3.2-.3,5.1-.7s1,0,1.4-.2c-.4.6-1,.9-2,.9-.3.2-.5.3-.7.1,0,.1,0,.3-.2.3-.8,0-2.4,0-3.1-.3,1.9.7,4.6.7,5.9-1,.5-.1,1.2-.6,1.7-.4-.7.4-1.2,1.5-1.8,1.9s-1.7.7-2.4,1-1.5.4-1.9,1c0,.2.4.2.5.3"/>
  <path class="st80" d="M79.2,53.4l.2.3c-.8,4.6-2,9.2-3.4,13.7,0,1.3-.3,2.5-.8,3.7.5,0,.5.6,0,.7-.5.4-.6,1.3-.9,1.9h-.2c-.8-.4-1.1-2.1-1-3s.9-4,1.4-5l.4-.2,1-2.9c.7-.9,1.2-1.8,1.3-2.9,0-.1-.1-.2-.1-.4,0-.3,1.4-5.5,1.6-5.7s.3-.1.5-.1Z"/>
  <path class="st149" d="M76,72.8c.1,0,.1.1,0,.2v-.2Z"/>
  <path class="st135" d="M76.2,61.6c0,.1.1.2,0,.3-1.5,2.8-2.6,5.6-3.1,8.7l-.5,1c.3.3.2.6-.3,1.1.1.8,0,1.2-.5,1.4.7.1,1.9.4,1.4,1.3,0,.2-.2.4-.3.5-.7-.8-1.4-1.1-2.3-1-.9.5-1-.2-.7-.8l-1.2.2c-1.2-.6-2.6.4-3.6,1.2h-.4c-.6-.5.2-1.4.6-1.6-.4-.2-.3-.3.1-.3-.4-.5,0-2.5.5-2.8,0-.3,0-.6.2-.9-.2,0-.1-.1,0-.2.5,0,1.9-.2,2.1-.7s0-2.3-1-2.4c-.5,0-.7-.2-.6-.7-.2,0,0-.3,0-.5-.2,0-.1,0,0-.2,0-.2.1-.1.2,0,.2-.5,1.6.1,2,.4,0,.5.6.5,1.8,0,1.5.3,2.1,0,2.6-1.4,1-1.6,1.9-3.1,2.9-4.7-.2-.3-.1-.3.2-.2.1-.2.3-.5.4-.9h.2c.1.2.3.3.3.5-.2.9-.5,1.8-1,2.6Z"/>
  <path class="st6" d="M77.3,59.7c.4.9-.6,2-.9,2.8s-1.1,3.1-1.2,3.2-.6.2-.7.6-.6,2.8-.6,3.2-.3,0-.3.2c0,.4,0,2.4.2,2.7s.6.7.5,1.3-.2.6-.3.9c.4.3.1.8-.3.9h-.2c0-1-1.8-1-1.9-1-.5-.5.7-.7.7-.7,0-.1-.3-.8.1-1.4s.4-.2.4-.2c0,0-.4-.3-.3-.6s.5-.8.7-1.3c.7-2.3,1.1-4.6,2.1-6.9s.7-1.3,1.2-1.8c.4-.6.6-1.2.8-1.9h.3Z"/>
  <path class="st34" d="M64.7,75.4c.9-.8,2.1-1.6,3.4-1.7s.5.2.7.2c.3,0,.7-.2,1-.2,1.3,0,0,.8.3,1.1.7,0,.9-.5,1.6-.3s1.4.9,1.2,1.3c-.5.7-.8,1.6-1.6,2.1,0-.4.9-.8-.2-1-.1-.5.5-1,.4-1.5s-.7-.5-.9-.4c-.4.1-.6,1.1-.7,1-.8-.6-.3-.9,0-1.6-.9.2-1.6,0-2.6.3s-2.1,1.2-3.2,1.6c0,.4-.4.4-.5,0,0-.5.7-1.2,1.2-1Z"/>
  <path class="st176" d="M73.8,74.5c.6-.7.8.1.9.7,0,.2-1.4.7-1.2.1,0-.3.2-.6.3-.9Z"/>
  <path class="st27" d="M78.1,25.4c0-.2.2-.3,0-.5.1,0,1.4.1,1.5.2s0,.3,0,.4c2.4,2.3,3.1,4.6,4.5,7.3h.2c.6,1.5,1.4,2.1,2.5,1.7,1,.3,1.4,4,1.5,4.9,0,1.4-.1,2.5-.3,3.9s-.6,3.4-.9,4.6-.6,2.1-2,2.6v1.2c-.4,3-1.6,6.5-3.1,9-.7,2-1,3.9-1.2,6-.6.4-1,1.1-1,1.9l-.5.9c-.8.3-1.4.9-1.4,1.7-1.5.4-2.6.3-2-1.6-.2,0-.1,0,0-.2l.2-.5c-.2,0-.1,0,0-.2l.2-.3c-.1,0-.1-.1,0-.2,0-.2.1-.1.2,0,.6,0,1,.5.8,1.2.8-.2,1.1-.8,1-1.6,1.5-3,2.6-6.1,3.3-9.5l.5-.5c.3-1.4.7-2.8,1.2-4.1l.8-4.7c.9-2.2,3.7-9.3,2.5-11.2s-.2-.2-.3-.3c-1.2-.5-1.6-1-1.7-2.2-.5,0-.6-.6-.2-.9l-.3-.7c-.5,0-.6-.5-.2-.9l-.3-.7c-.4,0-.4-.3-.2-.5v-.3c-.2,0-.2-.1,0-.2l-.5-.9c-.4,0-.4-.2,0-.3-.2,0-.3-.2-.3-.5-.3.1-.6-.4-.5-.7-.7-1.4-1.5-2.6-3-3.2-.3.3-.5.2-.6-.3Z"/>
  <path class="st1" d="M78.1,26.4l.2.5c.3.9.5,1.8.4,2.7l-.5.4c-.1,2.2-.5,4.4-.9,6.6l-.4.3c0,.2-.1.1-.2,0,0-.8-.6-1.7-1-2.5-.2-1.8-.9-2.3.4-3.8s.5-.1.6-.3,1.2-2.4,1.2-2.8-.2-.4-.2-.5c0-.3.1-.6.1-.9h.2c.2,0,.1,0,0,.2Z"/>
  <path class="st185" d="M81.8,28.8c-.1,0-.2,0-.3-.2h-.2c-.3-.4-2.1-3.2-2.2-1.6l-.3.2c0,.2-.1.1-.2,0-.1,0-.1-.3,0-.3-.1-.4-.3-.8-.3-1.2,0-.1,0-.2,0-.3.5.4.3-.2.4-.2,1.1.2,2.4,1.8,2.9,2.8s.5.8.3.8Z"/>
  <path class="st27" d="M78.5,26.9c0,.2-.1.1-.2,0l-.2-.5c0,0,0-.1,0-.2,0-.2,0-.3,0-.5.3.3.3.8.3,1.2Z"/>
  <path class="st75" d="M82.8,28.5l-.3-.5c0,.2.2.4.3.5Z"/>
  <path class="st26" d="M69.3,78c-.7,0-1.4-.4-2-1.2-3.6.5-7.2.8-10.9.9l-.5-.2c-.2,0-.1-.1,0-.2.6-.1,1.3-.2,1.9-.2.2-.5.6-.6,1.2-.2,1.3-.7,3.1-.8,4.5-.5.2,0,.4,0,.5,0,.9-.1,4.3-1.1,4.7-.9s.2,1.9.5,2.5Z"/>
  <path class="st16" d="M55.9,77.5c1.6,0,3.2-.2,4.8-.3s1.2.2,1.9-.4c0,.3-.3.4.2.3,1.1-.2,2.2-.3,3.3-.4s1-.3,1.4-.2.5.7.8.9.5,0,1,.6.6,1,.7,1.4c-.2.1-1.5.9-1.6.9-.2,0-.1-.1,0-.2v-.4c.5-.6-1.2-2.1-1.6-2.1-1.9.2-3.8.4-5.7.5v.4c-1.1.1-2,.1-3,0,0,.2,0,.1-.2,0-.5,0-.1-.2-.1-.1,0,.2-1.8.4-2.2.2-.6.2-.9.2-1.1,0l-.7.4-3.2.3c-.1.4-.5.7-1.1.8-.4,1.4-1.4,3-3,3l-3.7-.4c-.5,0-1.1-.1-1.6-.2h.5c-.4-.7.5-1,1-1,.8,0,1.5-.1,2.3-.5.5.3,3-1,3.2-1.3-.3-1.2,2.2-1.6,3.1-1.5l.5-.2c.4,0,.9-.1,1.4-.2.6-.1,1.2-.1,1.7,0,.3-.1.7-.1,1,0Z"/>
  <path class="st191" d="M62.8,15.7c-.9.2-1.8.6-2.8.7-.2,0-.1-.1,0-.2l.5-.4c3.2-1.3-.5-1-1.9-.8-4.6,1.3-9.5,1.7-14.4,1.9s-5.5.1-8.1-.9l-.3.3c-1.9-.4-3.9-.7-5.8-.8-.7-.6-1.4-.8-2.3-.9,0,.2-.1.1-.2,0-.9-1,1.1-.8,1.8-.7.4.9,1.2,1.1,2.3.5h.2c0-.4,1-.4,1.5-.3,2.2.1,4.9,1.2,7.1,1.7,5.1,1,9.2.2,14.1-.8s5.3-1.3,7.9-1.7,3.5.2,4.1.6.1.8,0,.8c-.1.2-3.2.9-3.7,1Z"/>
  <path class="st50" d="M60,16.5c-.1.2-2.2,1.1-2.6,1,0,.2.1.5.3.5s1.9-.2,2-.2c.6-.2,1.6-.8,2.2-1s1.3-.3,1.4-.3c.1.1-.2.5.3.5,1.2,0,1.4-.6,1.7-.6.7,0,1.8.1,2.5.2s.5-.1.5-.1c0,0,1.1,1.4,1.1,1.7l-.2.2c-1.2-1-2.6-1.6-4.2-1-1.2-.1-2.3.1-3.4.5-2.7,1.3-5.5,2.2-8.3,2.8-.5-.2-.9-.2-1.3.2-2.2.5-9.2.8-10.5-.8s.5-1.5,1.1-1c4.3,1.4,8.7.5,13-1,1.1-.9,2.5-1.5,4-1.8l.5.2Z"/>
  <path class="st88" d="M69.4,18.3c.3.2.6.7,1,1-.2.2-.7-.1-.9-.3-.3.3-.8.1-.7-.2-1-1-2.5-1.5-3.8-1,0,.2-.2.1-.3,0-.7-.1-1.6,0-2.3.3-5.9,2.9-12.7,4.4-19.2,3.1-3-1.1-6.1-2.2-9.2-2.9s-2.5-.2-3.6.4l-.4-.3c-.2,0-.4-.2-.3-.3.2-.6,3.9-1.6,4.6-1,1.3.6,2.5,1.2,4,1.1.7.5,2.5.9.7,0v-.4s.6-.1.6-.1c1.2.7,2.5,1.2,3.9,1.5.8.1,1.6.2,2.4.3l.4-.3c1.6.2,3.2,0,4.7-.3l.4.3,3.7-1.2h.2c-3.5,1.4-6.6,2.2-10.3,1.9s-2.5-.8-3.1-.6-.3.7-.2,1c1.3.3,2.6.8,3.9.9s4.8,0,6-.4.4-.4.7-.5.8.3.9.3c2.6-.3,4.8-1.6,7.2-2.5s3.5-.9,5-.9,1.6,0,1.9,0,1.7.9,2,1.2Z"/>
  <path class="st109" d="M60,16.2s0,.1,0,.2,0,.1,0,.2c-1.6.3-3,1-4.5,1.6-1.4.2-2.6.8-4,1l.2-.5c1.4-.5,7.3-2.5,2.4-1.3-2.9.2-5.7.6-8.4,1.3-.9,0-1.6,0-2.3.3-.6,0-3.7-1-3.8-1.3s0-.7.3-.7c6.2.3,12.6-.2,18.7-1.9,1.4-.4,3.7-.1,1.5,1.1Z"/>
  <path class="st151" d="M71.9,19.7c-.2-.5-1.1-.6-1.4-1s0-.3-.1-.4-.3-.1-.4-.3c-.2-.4.3-.8.7-.8,1.3-.2,2,.8,2.8,1.7s.7.4.5.7-1.1.3-1.5.2c-.1.2-.5,0-.5-.2Z"/>
  <path class="st50" d="M74.5,20.4l.4,1c-.5-.4-1.1-.5-1.6-.8s-.2-.2-.2-.2c.4,0,1.1.3,1.4,0Z"/>
  <path class="st50" d="M71.9,19.7c.2,0,.4.2.5.2v.2c0,0-.3,0-.3,0-.4.4-1.5-.3-1.6-.7.5.2.9.2,1.4.3Z"/>
  <path class="st84" d="M25.8,16.7c1-.4,2.6-.8,3.6,0s.6.5.5.9-2.6,1.7-3,1.7c.2.2.1.3-.2.2l-.3.5c-1.4-.2-3.1,1.2-4.1,2.2-.3.8-.9,1.2-1.9,1.3-.2,1.1-.5,1.5-1.7,1.7-.2.8-1,1.3-1.6,1.6.3.3.3.4-.2.3l-.2-.2c.1-.8.4-1.6.8-2.5-2.3-.4-2.9.6-3.3,2.7-.1.2-.3.2-.5,0-.2-1.3.3-2.5,1.2-3.5.7-.3,1.3.3,1.8,0s.3-.3.4-.4c.4-.3.6-.8,1-1,.7-.6,1.5-1,2.2-1.7s.8-.8,1.1-1.3l.4-.6,4-2c0-.2.1-.2.2,0Z"/>
  <path class="st112" d="M14.9,23.6c-.6,1.1-.9,2.3-1.2,3.5.5,0,.4.2,0,.3,0,.5-.2.9-.3,1.4.3.1.3.2,0,.3,0,.1,0,.2-.2.3.2,0,.2.1,0,.2,0,.7,0,1.6-.3,2.2.1,1,0,2.4-.7,3.3v-1.2c-2.7,1.8-2.9-2.7-.9-2.4s.9.5.9.8-1.2,1.1-1.4,1.5c.8.6,1.8-1.5,1.7-1.8s-.7-.3-.5-1.4,1-1.3,1-1.4c0-.2-.1-.5,0-.8.2-1.1.8-1.8.5-3.1.6-.5.8-1.4,1.5-1.7Z"/>
  <path class="st166" d="M24.8,14.1c0,.3,0,.5-.4.7.4.4.4.9,0,1.2-1.6.9-1.2,1,1,.4l.2.3c-.5.3-1,.8-1.4,1.1-.9.5-1.9,1-2.9,1.5s-2,.8-.9-.7,1.6-2.4,2-2.9.7-.2.7-.3-.2-.3,0-.5c.3-.4,1.3-.9,1.8-.9Z"/>
  <path class="st172" d="M27,13.8v.3c-1.6.6-.9,2,0,.6h.4s.2,0,.2,0c.3,0,.7,0,.8.2.4-.3,1.3.4,1.4.8-.5.7-1.4.9-2.8.6-.4.3-.8.4-1.4.5,0,0-.1,0-.2,0-1,0-1.7.7-2.6.3,0-1,.5-.6.5-.7,0-.1,0-.4,0-.5s.5.2.8-.4-1-.6.4-1.4.5,0,.5-.3c0,0,.1,0,.2,0,.4,0,1.1,0,1.6,0Z"/>
  <path class="st20" d="M84.4,23.1c.1.2.4.8.5,1-.7-.1-.8-1.2-1.5-1.4s-2.1.7-2.5.8c-.6,0-1.4-.6-2.1-.4s-.1,0-.2,0c-.5,0-1.1,0-1.6-.2l-.2.4c.2.9.7,3.2-.4,3.7-1.7-.1-1.9,2.1-2.1,3.4-.5,4.7,1.8,9.6,3.9,13.7,2.2,1.8,2.4,2.8,2.1,5.5s-.7,3.7-1,3.7-.2,0-.3-.1h-.2c.1-1.7.3-3.4.5-5.2-.9-1.7-2.1-3.4-3.4-4.8-1.9-3.9-2.5-8.3-2.9-12.6l.4-3c-1.2-.6,0-4.3,1.4-3.8,0,0,.1,0,.2,0,0,.2-.2,1.1.3,1,1.2-.2.9-2,1-2.1.2-.2,4.1,0,4.8,0,1.2,0,2.2-1,3.2.3Z"/>
  <path class="st50" d="M74.8,23.1c0,.2.2.4.2.7-1,.3-1.5,2.1-1.6,3s.5.3.5.5c0,1.1-.5,2.3-.5,3.3,0,2.5.6,6.1,1.4,8.4s.7,2.2,1.1,3.3,1.3,1.6,1.7,2.2,2.2,3.2,2.2,3.4-.3,1.6-.2,2.2.3.3.3.4-.2,0-.3.1c-.1.3,0,.9-.1,1.2-.1.6-.2.5-.2,1.2.2,0,.2.1,0,.2-.4.7-.5,1.5-.8,2.3-.4,1.3-.7,2.7-1.2,4s-.4,1.3-1,1.9c.4-1,.6-2,.7-3.1v-.2c.4-2,.9-4,1.3-6.1l.4-.3c.3-1.9.4-3.7-.9-5.3-3.2-3.2-4.3-7.8-4.7-12.1-.3-.7-.4-1.5-.2-2.3-.3-1.4-.3-2.8,0-4.2-.2,0-.3,0-.2-.2-.9,0-.7-1.6,0-2.1-.1-.3,0-.6.3-1-.2-1.5,1-3.4,1.8-1.4Z"/>
  <path class="st22" d="M70.5,19.3c.7.5.8.5,1.6.7.5.9,2.6,1.9,2.9,2.8s-.1.3-.1.3c-.2-.6-1-.7-1.3-.2s.3,1.5-.8,2.6c-.6.7-.7,1.1-.3,2l-.6.2c-.1.5-.4.5-.5,0-.2.5-1.2-.2-1.3-.6s.5-1.8,1-1.6v-.2c-.6-.2,0-1.7.6-1.7v-.3c2-.2.2-.7-.7-.7,0,.4,0,.5-.3.2-.9,1-1.1-1.2,0-.7,0-.6.6-.8,1.6-.7l-2.6-1.8v-.4c-.2,0-.2-.1,0-.2.3.1.6.2.9.3Z"/>
  <path class="st168" d="M27.4,13.8c1.1-.1,2.2-.1,3.3,0,.2,0,.5,0,.7,0s.1,0,.2,0c.4.1.9.2,1.4.2.1,0,.2,0,.3,0v.2c-.2,0-.9,0-1,0s0,.4-.2.6c-.4.9-.5,0-.6-.1s-.7.7-1.7.4-.8-1-.9-1.1-1.2,0-1.3,0-.1.5-.2.7c-.2.4-.7.7-.7,1.2-.4.2-.3-.3-.5-.4s-.9.2-1.1,0c-.3-.3.4-.4.5-.6s-.2-.7-.2-.8c.5,0,1,0,1.4-.3.1,0,.2,0,.3,0Z"/>
  <path class="st172" d="M30.7,13.6v.2c-1.1,0-2.2,0-3.3,0,.5-.4,1.3,0,1.9,0s.9-.1,1.4-.1Z"/>
  <path class="st115" d="M32.9,13.9c-.5,0-1.2.3-1.4-.2.4,0,1.1-.1,1.4.2Z"/>
  <path class="st93" d="M77.1,23c.1,0,.1.2,0,.3,0,.3.4.9.4,1,0,.1-.3,0-.3.2s.2,1.3.2,1.7-.3,1.5-.3,2.2c-.3,0-1.4-.1-1.6.2s-.5,1.2-.6,1.4c-.8,2.9.5,7.7,2.2,10.1.5,0,.7.5.4,1.5.6.1.6.4.7.9l2.2,2.4c.9.8,1,1.9.5,3.3.4,1.1,0,3-.7,4-.7,4.4-1.5,8.8-3.1,13l-.2.7c.2,0,.2.1,0,.2l-.5,1.7c.1,0,.1.1,0,.2l-.2.5c0,0,0,.1,0,.2l-.2.3c0,0,0,.1,0,.2l-.2.5c0,0,0,.1,0,.2,0,1.2-.3,1.6-.7,1.4,0,0-.4-.2-.3-.3s.3,0,.5-.2c.5-1,.1-2.2.4-3.2.6-2.4,1.5-4.2,2.1-6.9s1.3-4.7,1.5-7,0-.1,0-.2c.4-.2.5-.9.6-1.3.1-.6.1-1.8.3-2.4s.3-.1.4-.2c0-.2-.2-.5-.2-.9,0-1,.2-1.2-.3-2.2s-1.4-1.2-1.9-2c-.9-1.4-1.5-3.1-2-4.5-.9-2.3-1.7-4.5-1.8-7s-.1-4.3,1-5.6,1.1-.2,1.4-.5.5-.9.5-.9c.1-.5-.4-2.1-.5-2.7,0-.2.4,0,.5,0Z"/>
  <path class="st120" d="M76.9,37c.3,0,.5.4.4,1,.6.3,1,.9,1,1.6.7.5,1.3,1.1,1.7,1.7,1,.1,1.2,1.6,1.3,2.5s0,1.5,0,2.2c.6.2.4,2.2-.3,2.1,0-.4.2-2,0-2.2s-.7-.7-1-1c-.6-.7-1.9-1.9-2.2-2.3s0-.6-.1-.7-.4,0-.5-.1,0-.9,0-1.2-.2-.4-.2-.6c-.2-1.1-.2-1.9-.3-2.9h.2Z"/>
  <path class="st192" d="M78.6,23.1s0,.1-.2.1c-.3,0-1-.4-1.4,0,0,0-.2-.1,0-.3.4,0,1.3-.1,1.6.2Z"/>
  <path class="st60" d="M78.5,19.3c0-.1-.5-.4-.7-.6-.9-1.3,1.2-2.1,1.4-.9s-.7,1.3-.7,1.5Z"/>
  <path class="st139" d="M27.9,78c.6.3,1,0,1.3-.5.3-1.8,1.7-1.7,3.1-1.6,3.6.3,6.6,1.5,9.7,3.3l.3.6c1.8.9,3.3,0,4.7-1.1,1-.7,2.1-1.2,3.3-.9.2-.4.3-.4.5,0,.2-.1.7-.2.9,0,0,.4-1,.9-.8.2-.3.3-2.3.7-2.4.8-.3.3,0,.7-.2.9s-2.4,1.4-2.7,1.5-.8-.1-1,0-.4.4-.6.4c-.4,0-1.5,0-2,.2s-.3.7-.8.5c-.3,0-.8.1-1-.2l.2-.2c-.7,0-1.4-.1-2.2-.1-.1,0-.2,0-.3,0-.4-.6,0-.8,1.5-.7-.4-.8-1.1-1.8-2.1-1.5-.9-.8-1.1-.6-2.1-.2-.5-.5-1.2-.7-1.9-.8-1.1-.2-2.3-.4-3.3.3s-.5.8-.1.9c0,.4,0,1.1-.4,1.1-.3-.1-.7-.2-1-.3v-.4c-.6-.5-1.5-1.2-1.4-2v-.2c0-.2.1-.1.2,0,.2,0,.3,0,.5.2,0-.1.1-.1.2,0Z"/>
  <path class="st177" d="M54.5,78.4v.4c-1.1,1.1-.5,2.1,1.8,3.2v.4c0,0-.6.2-.6.2,0,.4-.4.3-.5,0-1.1-.4-2.2-.2-3.3-.1s-1.9.2-2.4.4-.5,0-.5.3c1,.1,2.2.3,3.2.3s2.4,0,3.5,0c3.3-.2,6.7-1.5,9.9-2.3.4.5-.6.4-.9.6s-.5.7-.5.8c0,.4-1.5.5-1.7.2,0,0-.1,0-.2,0,0,.3-.2.3-.3,0-.7.1-1.4.3-2.1.5-.1.1-.2.1-.3,0-4.4.5-8.9.7-13.1-.2s-2.4-.6-3.6-.7c1.4-.2,4.1.6,5.2-.4s.8-1.1,1-1.4c.3-.4,0-1,.8-1.2s.5,0,.5,0c0,0,0-.4.3-.7s3.4-.3,4.1-.4Z"/>
  <path class="st28" d="M29.5,80.8v-1c-.4,0,0-1.1.3-1.4s1.9-.8,2-.8,0,.3.2.3c1.4.1,1.6,0,2.9.7s.2.3.3.4,0-.3.2-.3c1.3-.5,1.2.2,1.8.4s.5-.2.8,0,1.3,1.3,1.3,1.3c.5,1.1-.3.8-1,.9s-.7-.2-.6.3c-.6-.1-.5-.5-.9-.7s-4.6-1.2-5.3-1.2-1.7,0-1.5,1.2c-.3.1-.5-.1-.7-.2Z"/>
  <path class="st103" d="M26.9,83.4c.1-.2.5-.3.6-.5.5-.9.1-1.4,1.6-1.4,2.9,0,5.9.5,8.8.7s1.1.4,2,.8c1.9.8,5.2.5,7.4.6l4.6.5c-2.9,0-5.8,0-8.7-.3-.4.1-.8.1-1.2,0-4.1-.5-8.2-.8-12.3-1-.9.6-1.9.8-2.8.6Z"/>
  <path class="st4" d="M42,83.7c-4.4,0-8.7,0-13.1,0-.6.2-1.3.2-2-.2,0,0,0-.1,0-.2,1.1.2,1.9-.8,2.8-1s6.5.3,7.6.5,1.8.5,2.7.6,1.5-.1,2.1.2Z"/>
  <path class="st44" d="M42,83.7c.4,0,.8,0,1.2,0,.2,0,.1.1,0,.2h-1c-3.7.2-7.5.2-11.3.2-.4.2-.9.2-1.5,0v.2c0,.2-.1.2-.4.2,0,.3-.2.3-.3,0l-.5-.2c0,.3-.2.2-.3,0-.2.2-.4.1-.3-.2,0,0-.3-.2-.5-.3v-.2c1.1,0,2.3,0,3.4,0,4,0,7.7,0,11.7.2Z"/>
  <path class="st4" d="M59.4,83.4c1.5-.3,3-.5,4.5-.6.4.4.5.6.2.6-.9.4-1.9.5-3,.4-6,1-11.9.8-17.8.1v-.2c2.9.1,5.8.3,8.7.3s4.8-.4,7.5-.7Z"/>
  <path class="st144" d="M64.6,82.9c.2-.4.2-.7.8-.7s-.3.7,0,.9c.5,0,.8-.4,1.1-.7l.3.5v-.7c.2-.2,4.8.9,5.2,1.6h-.2c-1.6-.5-3.6-1.2-5.2-.3-.4-.3-.6-.2-1,0,0,.6-1.2.4-1.4,0,.1-.5-.3-.4-.6-.4-1.3,0-2.8.2-4.1.4v-.2c.1,0,.2,0,.3,0,.7-.2,1.4-.4,2.1-.5.1,0,.2,0,.3,0,0,0,.1,0,.2,0,.6,0,1.2,0,1.7-.2,0,0,0,.3,0,.3.2.1.4.1.5,0Z"/>
  <path class="st96" d="M38.2,81.6c.2-.3.8-.2,1.1-.2.6,0,2,0,2.3.5-.5,0-1,0-1.6,0s-.9-.1-1.4-.2l-.3-.2c0,0-.1,0-.2,0Z"/>
  <path class="st139" d="M38.7,81.8c-.1,0-.3,0-.3-.2.1,0,.3,0,.3.2Z"/>
  <path class="st78" d="M13.5,48.2c-.3-1.2.8-2.3,1.7-3,.3-1.2,1.3-.5,1.4.4,0,.5.4,1.3.7,1.7,0-.2.1-.1.2,0,.2,0,.2.1,0,.2.1.2.1.4,0,.5v.3c.8,2.1,1.5,4.2,2.1,6.4.2,0,.2.1,0,.2l.2.5c.2,0,.2.1,0,.2l.2.3c.2,0,.2.1,0,.2.3,1.4.7,2.7,1,4,.2,0,.2.1,0,.2l.2.5.3.9c.2,0,.2.1,0,.2l.2.5v.2c.5,0,1,1.5.5,1.7.2,0,.2.1,0,.2l.2.5c.2,0,.1.1,0,.2l.2.5c.2,0,.2.1,0,.2l.2.3.2.2c.9,3.7,2.2,7.4,3.6,10.9.3,0,.5.2.5.7.6.9,1.3,1.6,2.1,2.3,0,.2-.6,0-.7,0-.5-.2-.7-.3-1.2-.5-1.4-.6-2.9-1.3-4.2-2.1s0-.2,0-.3c-1.1-1-1.9-2.5-2.6-3.8-.6,0-1-1.1-.7-1.6-.8-2.5-2-4.9-2.4-7.4l-.3-1.7.2-.2c1.8.4,3.4-.6,2.5-2.6.1-.9,0-1.6-.4-2.2,0-.3-.1-.7-.4-1.2-.1-1-1.6-5.6-2.1-5.9s-1.4-.4-1.5-.4c-1.4,2.1-2.3-2.2-2-2.3s.2,0,.2,0Z"/>
  <path class="st189" d="M11.7,39.1l.2.7c.1.6.2,1.3.2,1.9.5.3.6.8.2,1.2.1.4.2,1,0,1.2l-.3-1.7c0,0-.3.1-.3.3-.2,1,0,3.4.2,4.4.8,5.7,3,12.2,4.6,17.8-.2.8,1,2.6.2,3s-.4,0-.6-.4-.2,0-.3-.2c-.2-.6.1-1.6-.7-1.4.4-.6-.1-.8-.2-1-.5-1.5-.9-3.2-1.5-4.6s-1.2-2.9-1.5-4.5-.7-3-.9-4.2.1-.6.1-.8-1-1.2-1.1-1.3c-.2-.4-.5-2.4-1-3.3s0-.4-.6-.3c0-.8-.4-4.7,0-5.2s.2-.2.4-.2c-.2.7.3,1.1.5,1.6s-.2.8.6,1.2.4,0,.5,0,0,.6.4.4.6-4.1.8-4.9.3-.3.3-.3c.2.1.2.4,0,.5Z"/>
  <path class="st89" d="M13.5,48.2c0,.2-.2.2-.1.6s.6,1.7.9,1.8c.5.2.4-.3.6-.4.6-.4,1.5.5,2.3.3.1,1.4,1,2.5,1.4,3.8s.2,2.3,1,3.1.3.1.3.1c0,.1-.4.4-.3.6h.3c.2.6,0,1.3,0,1.9s.3.5.3,1-.2.9-.3,1.1-1.1.9-1.2.9c-.6.1-1-.1-1.6-.1.2.5.1,1.2.2,1.6-1.2-4-2.5-8-3.4-12.1s-1.3-5.7-1.6-8.3,0-.8,0-1.2c.3-.3.4-.2.5.2.3,1.7.5,3.5.7,5.2Z"/>
  <path class="st178" d="M20.4,73.5l-1,.2c.3-.6-.3-1.2-.4-1.8s0-.5,0-.8-.3-.7-.3-.7c.3-.3.4.2.4.3.2.4.4.8.6,1.2s.5,1.1.7,1.6Z"/>
  <path class="st74" d="M27.2,79.7c-.4-.1-.8-.2-1.3-.4-1.2-.5-1.9-1.5-3.2-1.5.1-.2.1-.4.3-.5,1.2,1,2.8,1.7,4.2,2.4Z"/>
  <path class="st74" d="M22.5,78.2c0,0,.1-.1.2-.2l-.2.2Z"/>
  <path class="st189" d="M9,49.3c0-.2-.1-.4-.2-.7l.2.7Z"/>
  <path class="st189" d="M8.8,48.2s-.1-.2-.2-.5l.2.5Z"/>
  <path class="st189" d="M8.6,47.5c-.2-.2-.1-.5-.2-.7.4.2.2.6.2.7Z"/>
  <path class="st189" d="M8.4,46.7c0-.4,0-.5,0-.5v.4c.1,0,0,0,0,0Z"/>
  <path class="st129" d="M13.1,29.7c.9-.3.7.7.4,1.2.3.4.4.7,0,1.1,1.4.4,1.8,1.3,1.9,2.6,0,1.8.2,3.6.5,5.3h.2c.7,1.1,1.1,3,.7,4.3.3,1,.5,2.1.5,3.1h-.2c-.4-.7-.5-1.1-1.4-.5-.2-.8.4-.4.5-.5.2-.2,0-1.5-.7-1.4.1.6-.4.7-.6.9-.6.7-1.3,1.5-1.5,2.4-.7-1.6-.8-3.4-1.1-5.1s-.2-.2-.2-.3c0-.4-.1-.8-.2-1.2-.1-1.3-.2-2.6-.2-3.8,0-.1,0-.2,0-.3-.1-.2-.1-.5,0-.7,0-.1,0-.2,0-.3.3-.2.1-.8.2-1.2.2-1.9.7-3.7,1-5.5Z"/>
  <path class="st79" d="M9.8,29.7c-.3-.4-.1-.7.2-1,0,.2,0,.7-.2,1Z"/>
  <path class="st64" d="M12.1,41.6c-.1-.7-.2-1.1-.2-1.9l-.2-.7c0-.2,0-.3,0-.5,0-.2-.1-.6.2-.7,0,1.3.3,2.5.2,3.8Z"/>
  <path class="st64" d="M11.9,37.5c-.3,0-.3-.6,0-.7,0,.2,0,.5,0,.7Z"/>
  <path class="st32" d="M58,78.4c0,0,.1,0,.2,0,2,.2,4.1.6,6,1.4,1.2-.5,3.5-1,4.1.5-1.1.6-1.7.3-2.8.6s-5.5,1.7-6.7,1.3c-1.1,0-4.3-1.1-3.3-2.7s1.4-1,1.4-1.1,1,0,1.1,0Z"/>
  <path class="st171" d="M54.5,78.4c.3,0,.8-.3,1.3-.3.8,0,.8.2,1.8.1s.5-.4.4.2c0,0-.4.2-.5.2-.2,0-.4,0-.5,0s-.1.4-.3.5c-.5.3-1.2.3-1.1,1.1s2.2,1.5,2.9,1.8.2.2.2.2v.2c-.2.3-.7.3-.9,0-.5,0-1,0-1.6,0-1.6-1.3-4-1.5-1.7-4Z"/>
  <path class="st171" d="M61.1,78c1.2-.3,2.2-.2,2.9.4,1.6-.3,4.2-.3,4.4,1.7,0,0,0,.1,0,.2,0,0-.2,0-.2,0-.6-.9-2.3-.7-3.2-.5s-.5.3-.9.3c-.5,0-1.2-.5-1.6-.6-.8-.2-1.7-.2-2.5-.4s-1-.6-1.9-.6l3-.3Z"/>
  <path class="st181" d="M75.9,79.6c.4.1.1.2,0,.4s-.6.6-.8.8-1.9.7-2,.7c-.3,0-.7-.2-1.1-.2-.7,0-1.4.3-1.9-.6h3.2s.3-.4.6-.4c.7-.2,1.6-.1,2.1-.6Z"/>
  <path class="st92" d="M58.7,82.3c.2,0,.9-.1.9.2l-3.2.5h-3.6c.3-.6,1.4-.3,2-.3s.4-.2.4-.2c.2,0,.3,0,.5,0,.7-.1,1.4-.2,2.1-.2.3,0,.6,0,.9,0Z"/>
  <path class="st177" d="M64.6,82.9c0,.1,0,.4,0,.3s-.4-.1-.4-.3h.5Z"/>
  <path class="st128" d="M63.2,65.2c.2,0,.6.7.5,1,0,.5-1.4,2.1-1.8,2.5,0,.1-.2.6-.2.6,0,.2.9,1.5,1.2,1.8h.4c.4.8.8,1.5,1.3,2.3.3.1.6.2.9.2l-.7,1.9c-.4.3-.6.8-1.2,1-1.5.2-3,.4-4.5.5-.9,0-.8-.4-.2-1-1.2-.7-2-1.6-.6-2.7-.1-1.7,1-2.9,2.5-3.4-.2-.6,0-1.6.7-1.9-.2-.3.3-1.6.5-1.9s.8-1.1,1.2-.8Z"/>
  <path class="st22" d="M72,27.8c.1-.4.4-.4.9-.1-.6,6,.5,12.9,3.8,18.1,2.2,1.7,2.4,3.5,2,6.1-.4,1.9-1,4.9-1.7,6.6s-.4.8-.4.8c0,0-.3,0-.3,0l-.3-.3,1.3-5.2c.5-3,.5-4.5-1.7-6.8-2.3-4.7-4.2-10.1-4.3-15.3s0-2.8.8-3.8Z"/>
  <path class="st38" d="M71.9,27.8h.2c0,.3,0,.7,0,1-1.7,3.6,1.7,14.3,3.8,17.9s1.4,1.7,1.7,2.4c1.2,2.5-1,7.5-1.3,10.2,0,0-.1.1-.2.2-.2.6-.6,1.1-1,1.5s-.2.2-.4,0c.2-1,.5-2,.9-3,.7-2.4,1.7-5.9.7-8.3-1.8-3.4-3.4-7-4.7-10.7v-1.1c-.1-1.2-.3-2.2-.6-2.9h-.2c-.4-2.1-.6-3.1-.6-3.1l.4-.2v-.4c-.4-1.4-.1-2.4.7-3.6.1,0,.4,0,.5,0Z"/>
  <path class="st82" d="M76,59.5c.2.7-.5,1-.7,1.4-.6,1.3-1,2.1-1.8,3.4s-.5,1.8-1.5,1.7l.2.3c-.5,0-1-.3-1.6-.3s-1.2.4-1.6.4c-.7,0-.4-.5-.6-.6s-.6,0-.8-.2-.5-.7-.7,0v-.3c-.2,0-.2-.3,0-.3l.2-.9c-.5-.2-.5-.7,0-.9,0-.2.1-.1.2,0,.5.3,1.1.4,1.8.5,2,1.7,2.7,1.1,4.2-.7.4-.7.8-1.2,1.3-1.4-.2-.1,0-.5.2-.5.3-.2.6-.4.8-.7.4-.6-.2-.4.6-.9Z"/>
  <path class="st157" d="M67,63.1c0,.3,0,.6,0,.9l-.2.9c0,0,0,.2,0,.3h-.2c-.3,0-.3-.7-.2-.6.2.7-.3,1-.7.4-1.2.3-1.6.8-1.1,1.6l-.3.4h-.4c-.3-.7-.6-1.4-.8-2.1,0,0,0-.1,0-.2-.5-.2,1-2.4,1.2-2.5.6-.4,1.1-.2,1.5.3l.9-1.5c.2,0,.3,0,.5,0,0,.7-.2,1.4-.3,2.1Z"/>
  <path class="st46" d="M64.6,67.3c.4-.1.7.2,1,.9.1.6.3.9.6,1.2.5,0,.4.2,0,.3,0,0,0,.1,0,.2-.1.3-.2.6-.2.9-.1.8-.3,2-.5,2.8s-.6.5-.9-.2c-.4-.6-.8-1.2-1.2-1.9.6-.3.6-.8.1-1.4l1-2.8Z"/>
  <path class="st127" d="M64.4,66.9c-.2-.9-.7-1.4.4-2s.8.2.7-.6c.5,0,.6.4.8.7.2,0-.1-.5,0-.5s.4,0,.5-.2c0,.3,0,.6,0,.9s0,.1,0,.2l-.2.9c.5.8.3,2.4-.3,3.1l-.5.5c0-.8-.5-2-1-2.6-.1,0-.2,0-.2-.2-.1,0-.1-.1,0-.2Z"/>
  <path class="st161" d="M66.7,65.9c.2.4.5.3.8.4s0,.4.6.1l-.2.3c.2,0,.4,0,.5.1s.2,2.1.1,2.2c-.2.6-1.9,1.4-2.4.6,0-.1,0-.2,0-.3.1-1,.3-2.1.3-3.1,0-.2,0-.3.2-.3Z"/>
  <path class="st157" d="M66.7,65.9c0,.1,0,.2-.2.3,0-.3-.1-.7.2-.9,0,.2,0,.4,0,.5Z"/>
  <path class="st161" d="M66,70.7c0-.3-.1-.7.2-.9,0,.3-.1.6-.2.9Z"/>
  <path class="st25" d="M81.8,28.8c.2.2.4.5.5.7,0,.3.1.4.3.5,0,0,0,.3,0,.3l.5.9c0,0,0,.1,0,.2,0,.1,0,.2,0,.3,0,.2.1.3.2.5l.3.7c0,.3,0,.6.2.9l.3.7c0,.3,0,.7.2.9l.3,1.2c-.2,1.1-.1,2.2.2,3.2,1.1.1,1.1.8.9,1.7-1.2,4-2.1,8.1-2.7,12.2-.5,1.3-.9,2.7-1.2,4.1-1.1,3.2-1.4,6-2.9,9.1s-.7.7-.6,1.5.3.3.3.3c0,.1-1.9,1.3-2.1,1.1,0-.3.4-.9.3-1.1s-.4,0-.5-.6c-.1-.1-.1-.4,0-.5,0,0,0-.1,0-.2l.5-1.7c0,0,0-.1,0-.2l.2-.7c.9-4.3,2.1-8.7,3.1-13,.2,0,.3.1.3.3-.7,2.1,0,4.2,1.8,1.5v-2.5c1.6-7,1.9-15-.9-21.8v-.8c.2,0,.2,0,.4.2Z"/>
  <path class="st185" d="M81.9,57.9c-.4-1.5.7-2.6,1-4.2.5-2.4.6-4.9,1.2-7.3s1.3-3.5,1.4-5.3-.3-.7-.8-1c-.9-.5-.3-3.8-.4-4.8,0,0,.6,1.2.6,1.2.3.4,1.3.6,1.6,1.1s.4,1.3.3,1.7c0,1.7-1.3,6.1-1.9,7.8s-1.1,1.8-1.3,3.5c-.3,3.3-.7,4.1-1.8,7.2Z"/>
  <path class="st185" d="M83.2,31.3c-.4-.2-.4-.5-.5-.9.4.2.4.5.5.9Z"/>
  <path class="st185" d="M84.2,34.5l-.3-.7s.2.3.3.7Z"/>
  <path class="st185" d="M83.7,33l-.3-.7s.2.3.3.7Z"/>
  <path class="st149" d="M75.9,69.5c0-.3.2-.5.2-.5l-.2.5Z"/>
  <path class="st185" d="M83.2,31.8h-.2c0,0,.2-.3.2-.3,0,.3,0,.3,0,.3Z"/>
  <path class="st149" d="M76.4,68.3h-.2c0-.2,0-.4.2-.5,0,.2,0,.4,0,.5Z"/>
  <path class="st149" d="M76,68.8c0-.3.2-.3.2-.3l-.2.3Z"/>
  <path class="st25" d="M79.5,67.4c0,.1-.3-.1-.2-.3s.3.1.2.3Z"/>
  <path class="st149" d="M84.2,32.8c.9-.5.8,1.1,1.5,1s1.2-1.1,1.6-.7c.9.9,1.4,6.5,1.3,7.9s-.5,6.4-1.1,8.1-1.1,1.6-1.5,2.5c-.8,1.9-1.4,4-2,5.9s-1.3,3.1-1.9,4.5-1,1.6-.8,2.6.6.9.5,1.8l-.5.2.3.6c-.2.1-1-.2-1-.2-.1,0-1,2.4-1.1,2.7-1,0-1.3,1.6-1.5,1.8s-1.6.9-1.9.9-.8,0-1-.2c-.3-.2,0-.4,0-.6s0-.6,0-.7c.5-.2.3-1,.7-1.4,0,0,.1,0,.1.2,0,.3-.3.8,0,1.1s1.5.1,1.6,0,0-.5.2-.8,1.2-.9,1.5-1.1,0-.2,0-.3c0-.1.3-.1.4-.2,0-.1,0-.9,0-1.2s.6-.8.7-.5c.4-1.9.5-4,1.1-5.8s.9-1.7,1.4-2.6,1.9-6.4,2-7-.3-1,0-1.4.7-.1,1.1-.6c.9-1,.9-3,1.2-4.2.6-2.8,1.5-4.8.7-7.7s-.9-2.7-1-2.8c-.2-.1-.9.4-1.5,0s-1.1-1.4-1.2-1.6,0-.4-.1-.5Z"/>
  <path class="st7" d="M78.5,27.3c0,0,.1.2.2.3.5,1,.8,2.2,1,3.5,1.6,4.9,2.3,9.8,2,14.6l-.4.2c0-1.7-.2-2.9-1-4.3s-.3.6-.6.2,0-.5-.2-.8-1.3-1-1.6-1.4,0-.6-.3-.9-.7-.4-.8-.6,0-1.1,0-1.2c0-1.3.6-2.4.6-3.4s.2-1.8.4-3.1-.2-.7-.1-.7.7,0,.8-.4-.2-1.7-.3-2.3h.2c0,.1,0,.2,0,.3Z"/>
  <path class="st176" d="M78.3,26.9c-.3,0-.2-.3-.2-.5.2,0,.2.3.2.5Z"/>
  <path class="st180" d="M78.6,27.3c0-.5,0-1.2.7-1s1,.6,1,.6c.3.3.8,1.4,1,1.8,1.4,2.8,2,5.9,2.3,9.1s0,5.5,0,8.3-.4,3-.8,5.1,0,2.8-.2,2.9-.3,0-.4.2c-.4.6-.5,1.2-1.4,1.2s-.9-1-.9-1.5.3-1.4.3-2c.2-1.3.5-2.6.7-4,.4-.6.3-1.4.3-2.1.3-1,.2-2.5.2-3.6-.2-5.3-2.2-9.9-2.8-14.8,0-.1-.1-.2,0-.3Z"/>
  <path class="st27" d="M78.6,27.6c-.2,0-.2-.2-.2-.3h.2c0,.1,0,.2,0,.3Z"/>
  <path class="st185" d="M82.6,30c-.5,0-.4-.1-.3-.5.1.2.2.3.3.5Z"/>
  <path class="st136" d="M58.8,59.1c.5-.3,1.3.9,1,1.4.6.7.4,1.2-.6,1.5-.6.9-1.2,1.8-1.7,2.8-.2,1.9-1,2.8-2.9,3.3-.5,1.7-.9,3.5-1.2,5.3l-.6.8.3.3c-.5.8-.8,1.6-.9,2.4.9.1,1.7.3,2.6.4.2,0,.1.1,0,.2-.6,0-1.2,0-1.7,0-.7.2-1.4.1-2.1,0-.9-.3-.5-1.1.3-1.4.7-2.1,1.1-4.4,1-6.7.2-1.6,1.1-2.8,2.7-3.6.4-.4.7-1,.6-1.7l1.1-2c-.2-.2-.3-.4-.2-.6-1.4,0-1.2-2.2.2-.8.3-.8.8-1.5,1.6-2,.2-.2.4-.1.5.3Z"/>
  <path class="st29" d="M61.1,78l3.3-.6c.6.2,2.2-.2,2.5-.2.7.2,1.5,1.1,1.9,1.6,0,.5-.2.9-.3,1.3-.6-.9-1.4-1.5-2.5-1.5s-1.4.2-1.9.1-.7-.6-1.1-.7c-.5-.1-1.2.2-1.8,0Z"/>
  <path class="st72" d="M53.1,77.5c-.3.3-1,.2-1.4.2s-.6,0-.9,0c-.3-.3-.2-.4.2-.2.6,0,1.4,0,2.1,0Z"/>
  <path class="st169" d="M55.9,77.3v.2c-.3,0-.7,0-1,0v-.2h.2c.2-.2.4-.2.9,0Z"/>
  <path class="st173" d="M62,62.9c.6-.1.7.5.7,1,.1,0,.1.1,0,.2.4.7-.5,1.7-1.1,2v.4c-.6.9-1,1.7-1.4,2.6-2.1.7-3.5,1.8-4.5,3.8s-1.2,3.9.6,3.7c.1.2.3.3.5.3,0-.3.2-.3.3,0,0,0,.2,0,.3,0,0-.5.2-.4.3,0-.6,0-1.2.1-1.9.2s-.6,0-.9,0c-1.7,0-2.2-.4-1.5-1.1l-.2-.7c.4-1.3,1-2.6,1.7-3.8,0-.2,0-.1.2,0,.2-.3.4-.6.7-.9v-.4c.8-.8,1.7-1.4,2.8-1.8.1-1,.4-2,.9-3,0-.9.2-1.4.8-1.4.5-.5.9-1,1.3-1.6.3-.4.4-.3.3.2Z"/>
  <path class="st16" d="M68.7,77.1c.1,0,.1.1,0,.2v-.2Z"/>
  <path class="st123" d="M60,16.2c.2-.3,1.2-1.1,0-1s-3.4.8-4.9,1c-2.9.5-6,.7-8.9,1.2l-6.3-.2c-.6.5,2,1.4,2.3,1.5.4.1.8.2,1.2.3,0-.1.1-.1.2,0,.2,0,.1.1,0,.2-1.7-.3-2.9-.8-4.5-1.4-.4.3-1,0-1-.5-.7-.3-1.4-.6-2.1-.9,0,0,0-.2-.2-.3-.3-.2-1.3,0-.9-.6,1.7.1,3.9,1.2,5.6,1.2,5.2,0,10-.2,15.1-1.1s2.2-.6,3.2-.8,2-.2,2.9-.4c.4,0,.9.7.7,1s-1.8.7-2.2.7Z"/>
  <path class="st168" d="M35.9,16.4c.6.3,1.5.4,2.1.9l-.4.2c-2.4-.8-4.9-1.4-7.4-1.5l-.3-.3c-.4-.3-.7-.8-1.2-.7l.3.9c-.4-.4-1.9.2-1.7-.3s.6-.6,1-.5l-.7-.3c1-.7,1.6.6,2.4.8s1.1,0,1.6,0c1.4.2,2.7.7,4.1.8Z"/>
  <path class="st68" d="M30,15.7c1.9-.1,6.2.8,8,1.6s.7.3,1,.5c1.8.9,2.3,1.7-.2,1.1s-.4-.3-.6-.4c-.6,0-1.1.1-2-.2s0,0-.8-.3-.7-.5-1.2-.6c-1.7-.5-2.4,0-3.8.5s-.6,0-.5.4c0,.5-.2.5-.5.2-.8.5-1.6.9-2.4,1l-.2-.4c.6-.3,1.4-1.1,2.1-1.5s.5-.2.7-.3c-.2-.8-2-.9-2.6-1.1v.5c-.4-.2-.8-.2-1.2-.2.5,0,1-.6,1.3-.6.4-.1,1.7,0,2.2,0s0-.3.6-.3Z"/>
  <path class="st48" d="M43.4,19c0-.5,0-.5.4-.6s1.5,0,2,0c2.5-.8,5.6-1,8.3-1.3s1.7-.6,2.7-.3c.3.3-1.3,1-1.6,1.1-1.2.5-2.5.7-3.6,1.3-1.7.3-3.9.7-5.6.3-.8,0-1.7-.2-2.4-.5,0,0-.1,0-.2,0Z"/>
  <path class="st58" d="M43.2,21.2c-1.1-.1-2.1-.4-3.1-.9-1.7-.4-3.4-.9-5.2-1.5-1.5-.4-2.8-.7-4,.3.7,1.3-2,2.9-3.1,3.5l-.3-.2c-.6.7-1.9,1.9-2.8,1.6-.4-.3,0-1.1,0-1.6.3-.6,1.2-2,1.8-2.1.2-.8,1.1-1,1.8-1.1.3-.3.7-.5,1.1-.6.2,0,.3-.1.5-.2,1.8-.5,2.6-.7,4.4-.3s4.1,1.5,6.3,1.9l2.6,1.2Z"/>
  <path class="st183" d="M65.1,17.8c.1-.4.5-.4.8-.4,2.3,0,2.1.8,3.7,1.6v.2l.2.4c-.3.9,0,1.7.8,2.2v.4c-.5.3-.5.3-.3.9l.3-.2v.4c-.5.8-.2,1.6.5,2.2,0,0,.3.2.2.3s-.3,0-.5.3c-.2.3-.2.9-.5,1.2,0,.1.9.6,1,.6.3.8-.5,1.4-.5,1.8s.3,2,.2,2.2-.3,0-.3,0c-.6,0-.7-.7-.3-1-.4-.9-.7-1.8-.8-2.8-.4-1.1-.6-2.2-.6-3.2,0-.6,0-1.1.2-1.7-2.2-.3-1.8-2.9-.8-4.2-.9-1-1.9-1.1-3.3-1.1Z"/>
  <path class="st77" d="M64.7,17.8c.1,0,.2,0,.3,0,1.6,0,2.7-.1,3.8,1.1-1.3,1.1-1.6,4.3.9,3.7l-.9,2.1c-.4,0-.6-.3-.7-.9-.4,0-.7,0-.9-.4h-2c-1.1-.9,1.1-4.1,1.8-4.7,0-1.2-5.6-.1-6.4.6l-.2-.2c0-.1,0-.2,0-.3,1.2-.7,2.8-1.3,4.1-1.1Z"/>
  <path class="st183" d="M64.7,17.8c-1.4.1-3,.6-4.2,1.4,0,.1-.1.3-.2.3-2.9,1.2-5.9,2.1-9,2.3-3.4.5-6.7.2-9.9-.7-.6-.1-1-.4-1.4-.7,1.2,0,2,.7,3.1.9,4.5.8,11.1,0,15.5-1.6s2.6-1.4,4.1-1.8,1.5-.4,1.9,0Z"/>
  <path class="st109" d="M46,19.5c-.9.1-1.6-.2-2.4-.3v-.2c.8.2,1.6.4,2.4.5Z"/>
  <path class="st130" d="M13.6,27.1s.2,0,.3-.3c.3-.9.3-2.2,1.3-2.6s1.5-.2,1.6-.2c.2,0,.9.1,1,.3.1.9-.9,2-.9,2.8l.2.4c-.4,1.4-.7,2.8-.9,4.2h-.2c0,.3-.1.5-.2.6-.1,1.9-.2,3.9,0,5.7.2,0,.1,0,0,.2l.2,1.4c.3,0,.3.2,0,.3-.3.5.6,1.8-.2,1.7,0-1.2-.6-2.4-.7-3.6s0-1.5-.1-2.6-.2-1.9-.5-2.4-1.3-.9-1.7-.8c-.3-.5.5-.6.5-.8s-.3-.3-.3-.6c0-.5.7-.8,0-1.3,0,0,0-.1,0-.2.1-.1.2-.2.2-.3,0-.1,0-.2,0-.3.2-.4.3-.9.3-1.4,0-.1,0-.3,0-.3Z"/>
  <path class="st179" d="M26.7,19.5c.7.3-.5,1.6-1.1.8-.8.9-1.8,1.6-2.8,2.3,1.3,1.8.2,4.6-1.8,5.3s-2.3.7-1.8-.5c-.1,0-.1-.1,0-.2,0-.3,0-.9-.5-.7-.3.7-1,.8-1.4.1.4-.8.6-.6,1-1.1s.1-.5.3-.7,1-.2,1.2-.5,0-1.1.9-1.4.5.1.8,0,1.3-1.7,2-2.2c1.1-.7,2.5-.8,3.3-1.3Z"/>
  <path class="st31" d="M29.5,18.6l-1.1,1h-.7c.1.7-.2.3-.7.4s-1.7,2-1.9,2.4-.3,1.1-.5,1.5c.5.5-.2.6-.7.5.2,0,.2,0-.2.2.5,0,.6.2.5.7-.3,1.1-3,3.6-4.3,3.6-.3.5-.6.7-.9.7-.4.4-.5,0-.5-.9-.1,0-.1-.1,0-.2l.2-.3c-.2,0-.1-.1,0-.2l.2-.2c-.1-.2-.1-.4,0-.5,0-.1.1-.1.2,0,0,0,0,.3.1.4,1,.3,1.1-.3,1.2-.3.1,0,.3.2.6,0,1.4-.3,2.2-2.3,2-3.5s-.8-1.1-.5-1.6,2.2-1.7,2.6-1.9.3-.5.4-.5c.5-.1.7.4,1.1.4l.2-.9c0,0,.1-.1.2-.2.9.1,1.7-.6,2.3-.7s.3,0,.3,0Z"/>
  <path class="st84" d="M13.3,28.8c0-.5,0-.9.3-1.4,0,0,.2,0,.1.3s-.2.8-.5,1Z"/>
  <path class="st84" d="M13.1,29.5c0-.3.2-.3.2-.3.3.1,0,.3-.2.3Z"/>
  <path class="st140" d="M72.7,25.5c0,.4-.4,1.3-.3,1.6s.8.3.9.6c.1.5-.4,2.3-.4,3.1s.3.8.4,1.2c0,.6-.3,1.1-.2,1.7s.4.2.4.4c0,.6-.3,1.5,0,2.4s.3.1.3.3c.5,1.7.6,3.7,1.3,5.4s3.4,4.1,3.7,5.4.2,2.9-.1,4.2c-.2-.6.2-2.9,0-3.3s-.3,0-.4-.2c-.1-.2,0-.4,0-.6-.4-.6-1.6-1.5-2.1-2.2-2-3-3.8-10.9-3.7-14.7s.2-2,.4-3c-.2,0-.5,0-.7,0s-.1,0-.2,0l.3-.5c-.4-.7-.6-1,0-1.6s.4-.1.4-.2Z"/>
  <path class="st141" d="M69.6,19.1l4,2.7c-1,0-2-.3-3,.3-1.2-.7-1.6-1.6-1-2.9Z"/>
  <path class="st52" d="M71.7,23.6c-.2.6-.6.7-.5,1.7-.3.4-1-.6-1-.8-.1-.7,0-1.3.5-1.8s.2-.1.3-.2c.8-.3,1.4.6.7,1Z"/>
  <path class="st183" d="M71.7,23.6c0-.2-.2-1.2-.7-1,1.7-.7,2.5.6,1.4,1.1s-.4-.4-.7,0Z"/>
  <path class="st149" d="M76.4,67.6c0-.6.2-1.2.5-1.7-.1.6,0,1.3-.5,1.7Z"/>
  <path class="st149" d="M76.9,65.7c0-.3.1-.5.2-.7l-.2.7Z"/>
  <path class="st170" d="M27.9,78c0-.3.2-.4.6-.4-.1-1-.1-2,0-3-.9-2.9,1.9-3.9,3.2-.9,2,.9,4.2,1.6,6.5,1.9,1,.3,2.5.7,2.1,2l1.2.4c1.3,0,2.6.4,3.5,1.3.7,1.2-1.9,1-2.6.5-1.5-.9-3.1-1.5-4.5-2.3s-5.8-1.4-6.8-1.3c-1.7.2-1.1,1.4-1.6,1.7s-1.4.8-1.5.2Z"/>
  <path class="st169" d="M56.6,61.6c.1.2.5.2.5.6s-1,1.6-1.2,2.1,0,.9-.1,1.1c-.5,1.1-2.3,1.6-2.8,2.7s-.2,2.5-.4,3.8-.6,3.6-.9,4c-.4.6-1.2.6-.7,1.6,0,0-.2,0-.2.2-.2,0-.4,0-.5,0-.6.1-2,0-1.7-.9s1.5-1,1.7-.5c0-.3.2-.4.5-.5v-1.3c-.1-3.2,0-7,3-8.9,0-.3.1-.6.5-.7-.1-.7,1.3-3.1,1.8-3.4h.4Z"/>
  <path class="st72" d="M50.3,76.3c-.3.1-.7.3-1.1.4s-.4,0-.3.3,1.2.6,1.4.6c-.3,0-2.1.6-2.4.8-.9.5-2.2,1.7-3.2,2s-1.4,0-1.7,0c-.4-.1-.5-.5-.6-.6.8-.3,2.4.5,2.6-.5,0-.5.4-.8,1.5-.8v-.4c.8-.2-.3-1-.8-1.1-.4-.4-.1-1.3.3-1.6-.3-.5-.4-1.6.4-1.1h.4c.7,1.2,1.8,2.6,2.8.8,0-.9,0-1.9-.4-2.9-.2-.7,0-2.1.8-2l.4.3c.4,1.3.7,3.1.6,4.4s-.2,1.3-.6,1.4Z"/>
  <path class="st170" d="M27,77.3c.5.2.5.3,0,.5v.2c-.2-.2-.4-.4-.5-.7-.1-.4,0-.5.2-.3.4-.3.7,0,.3.3Z"/>
  <path class="st170" d="M27.7,78l-.5-.2c-.1-.6.9-.5.5.2Z"/>
  <path class="st100" d="M61.8,82.7c-.3.5-1.5.5-2.1.5.5-.7,1.5-.5,2.1-.5Z"/>
  <path class="st73" d="M56.2,82.3c.5,0,1,0,1.6,0-.6,0-1.4.1-2.1.2,0-.2.3-.2.5-.2Z"/>
  <path class="st100" d="M62.1,82.7c0,0,.1,0,.2,0v.2c0,0-.2-.2-.2-.2Z"/>
  <path class="st95" d="M71.7,84.1c0,.5-.2.4-.3,0-.2.2-.4.3-.5,0h-1.4c-1.1-.2-2.1-.2-3.1,0-.1.7-1.4.6-1.9.2-.7.4-1.2.4-1.4,0h-.2c-2.9-.2-6,0-9.1.6-3.9-.2-7.7-.5-11.6-1h1c2.3,0,4.2.2,6.3.3,5.1.3,9.5-.6,14.5-.9s.9,0,1.4,0,1.4-.2,1.5-.2h2.6c.1,0,1.9.7,2.2.9Z"/>
  <path class="st182" d="M17.1,33.2c.3.1.2.2,0,.3.2,1.4.3,2.7.3,4.1.5,5.1,1.4,10.4,3,15.1,0,.5,0,.9.3,1.2h.3c.3,1,.5,1.8.8,2.7.9,1.3,1.5,2.7,1.9,4.2.5,1.1.9,2.3,1.1,3.6.6,1.2,1,2.5,1.1,3.8.3,0,.4.2.4.4.2-.6,1.3.6,1.4.9.2.4,0,1.3-.5,1.3l-.3.6c-.2,2.5-2.1,0-2.6-1.1l-.4-.4c-.5-1.9-1.1-3.8-1.7-5.7-.2-.6-.4-1-.5-1.7,0-.8,0-1.6-.4-2.4-1-4-2-8-3.2-12s0,0-.2,0c-.2,0-.3-.2-.3-.7,0,0,0-.1,0-.2-.3-1-.5-2.1-.7-3.1-.2-1.4-.5-2.9-.7-4.3s0-.2,0-.3l-.2-1.4c0,0,0-.1,0-.2-.2-1.9-.2-3.8,0-5.7,0-.2,0-.4.2-.5l.2.2c-.2,1.9-.1,1.6.1-.7h.3c.1-.4.2-.7.5-.5s0,2.1,0,2.5Z"/>
  <path class="st160" d="M21.6,62.6c0,0,0-.1,0-.2l-.2-.5c0,0,0-.1,0-.2l-.3-1-.2-.3c0,0,0-.1,0-.2-.3-1.3-.7-2.7-1-4,0,0,0-.1,0-.2l-.2-.3c0,0,0-.1,0-.2l-.2-.5c0,0,0-.1,0-.2-.6-1.6-1.1-3.3-1.4-5l-.2-.7c-.2,0-.2-.1,0-.2l-.2-.3c-.3,0-.2-.2,0-.3,0-.2-.1-.7.2-.7,1.2,4.4,2.6,8.8,3.6,13.3s.4,1.4,0,1.8Z"/>
  <path class="st5" d="M24.3,70.4c.9,1.7,1.9,4,2.5,5.8s0,.5,0,.7l-.2.3c-1.7-2.7-3.2-7.9-3.8-11.1l-.2-.3c0,0,0-.1,0-.2l-.2-.5c0,0,0-.1,0-.2l-.2-.5c0,0,0-.1,0-.2h.2c.7,1.9,1.2,4,1.9,6.1Z"/>
  <path class="st89" d="M17.8,48.2c0,.1,0,.2,0,.3l.2.3c0,0,0,.1,0,.2l.2.7c.4,1.7,1,3.3,1.4,5-.6-1-.7-2.2-1.1-3.4s-.9-1.9-1-3v-.3c0-.2,0-.4,0-.5l.3.7Z"/>
  <path class="st89" d="M20.9,60.2c-.3-.2-.3-.5-.3-.8-.2-1.1-.4-2.1-.7-3.2.6,1.3.8,2.6,1,4Z"/>
  <path class="st129" d="M15.6,46.7s0,.2,0,.3h-.5s0-.5,0-.5c.1.1.5.2.5.2Z"/>
  <path class="st89" d="M17.5,47.4h-.2c-.2-1-.4-2.1-.5-3.1.4,1,.5,2.1.7,3.1Z"/>
  <path class="st182" d="M22.3,65c-.3,0-.1-.4-.2-.5.2,0,.2.3.2.5Z"/>
  <path class="st182" d="M21.6,62.4c-.2,0-.2-.3-.2-.5.2,0,.2.3.2.5Z"/>
  <path class="st182" d="M21.5,61.7c-.3-.2-.3-.6-.3-.9v-.2c.2.5.3.5.3,1Z"/>
  <path class="st89" d="M21.1,60.7v.2c0-.1-.1-.2-.2-.5.1,0,.1.2.2.3Z"/>
  <path class="st182" d="M22.5,65.7c0-.1-.1-.2-.2-.5l.2.5Z"/>
  <path class="st89" d="M19.7,55.5c0,0-.1-.3-.2-.5l.2.5Z"/>
  <path class="st182" d="M22.7,66.2c-.2,0-.1-.2-.2-.3.2,0,.1.2.2.3Z"/>
  <path class="st89" d="M19.9,56s-.1,0-.2-.3l.2.3Z"/>
  <path class="st129" d="M17.5,48.4c0-.3,0-.3,0-.3v.3Z"/>
  <path class="st89" d="M20.3,59.8c.1,0,.1.1,0,.2v-.2Z"/>
  <path class="st89" d="M15.6,49.8c.1,0,.1.1,0,.2v-.2Z"/>
  <path class="st42" d="M11.9,39.7c-.3-.1-.2-.5-.2-.7.3.1.2.5.2.7Z"/>
  <path class="st24" d="M64.4,66.9s0,.1,0,.2c.3.7,0,1-.7,1.1,0,.9-.2,1.2-.8,1.7.1.5.1.9,0,1.1-.5-.1-1.6-1.5-1.6-2s.3,0,.3-.1c0-.1-.2-.3-.1-.5s.3-.1.5-.3c.3-.4,1.6-2.1,1.5-2.5s-.3-.4-.3-.5c-.2,0-.2-.1,0-.2v-.2c.3.5,1.1,1.6,1.2,2.1Z"/>
  <path class="st193" d="M64.6,67.3l.3,1h-.5c.4.7,0,.4-.2.6s-.4,1.1-.4,1.2c0,.2.5.4.3,1s-.5.1-.5.5c0,.7.5.6.7.9s0,.5.2.7c-.6-.7-1.4-1.5-1.7-2.3s-.4-1-.2-1.3.5-.4.6-.6,0-1.1.1-1.2c.1-.1,1,0,1-.9,0,0,.1.1.2.2Z"/>
  <path class="st17" d="M66.1,26.6c-.1-.9.6-.7,1.1-.2.9,1.3,1.8,2.4,2.8,3.4l.4.9c.2.4.1.7.3,1-.2.3.3,2.8.3,3.3.5.2.6,1.8-.2,1.7,0,.2,0,.3-.2.3-.3.6-.3,1.3,0,1.9.1.1,0,.2,0,.3.2,0,.1,0,0,.2l-.2,1.2c.2,0,.1,0,0,.2l-.2,1c.1,0,.1,0,0,.2-.1,2.1-1.1.6-.9-.8-.1,1-.5,1.6-1.2,2.4,0,.6-1.3,2.1-1.2.9-.2-.1-.2-.7,0-.9l.2-.5c-.1,0-.1,0,0-.2.4-.7.7-1.4,1-2.1l.7-5.7c.2-.5,1-.8,1.4-1,0-.8-.4-1.3-1.2-1.7-.2-1-.6-2.4-1.8-1.8l-.3-.3c-.2.2-.3,0-.2-.2-.4-1.2-.7-2.6-.7-3.8Z"/>
  <path class="st183" d="M74.6,61s0,0-.2.5c-.4.5-.7.3-.6-.3,1-1.9,1.6-3.9,2-6l-.3-.3c.3-1.4.4-2.9,0-4.3-1.3-2.3-2.3-4.8-2.9-7.3-.5-.3-.7-.5-.5-1.1-1.4-.8-1.5-2-1.2-3.4h-.2c-.2-.6-.1-1.4,0-2,.3-.6.2-1.1.2-1.7h.4c.4.9.2,2.1.3,3,.2,1.8,1.4,3.7,2.1,5.4s.7,2.1,1.3,3.3c.9,2,2.1,2.9,2,5.4s-1.2,6.2-2.4,8.9Z"/>
  <path class="st183" d="M71,34.7v-.9c.5.3.5.7,0,.9Z"/>
  <path class="st66" d="M75.9,55.3c.1.4,0,1,0,1.4-.4,1.5-1,2.9-1.5,4.4s-.4.5.2.5c-.6,1.1-2.4,3.6-3.7,3.5s-.9-.4-1.1-.5c-.4-.2-.5-.5-.7-.6-.5-.3-2.1,0-1.8-.9,0-.8,0-1.6,0-2.3h.4c.3-.1.4.2.4.8.2,0,.5,0,.7.2,2.5,1.3,3.3,1.6,4.8-1.1.7-1.7,1.4-3.4,2.1-5.1l.3-.3Z"/>
  <path class="st188" d="M62.7,64l-.2-.6c.4-.8.6-1.5.7-2.3-.6-.4,0-3.2.3-3.3s1.1.2,1.2.6c.5,0,.9.7.5,1,0,0,0,.1,0,.2.2-.3.3-.1.2.2l.2.2c0-.1.1-.1.2,0h.2c0-.3.2-.7.6-.9.4-1,1.5-2,1.1-.3.1,0,.1,0,0,.2,0,.4-.1.7-.2,1,.1.2.1.7,0,.9,0,.7-.5,1.6-.3,2.4h-.2c0-.6.1-1,.2-1.5s.1-.5-.2-.4c-.2.4-.8,1.6-1.1,1.7s-.4-.9-1.3-.5l-1.4,2.2c-.1,0-.2-.1-.3-.3-.2,0-.2,0-.2-.2,0,0,0-.1,0-.2Z"/>
  <path class="st135" d="M66.8,64.8c0-.3-.1-.7.2-.9,0,.5,0,.5-.2.9Z"/>
  <path class="st128" d="M63.2,64.7s0,.1,0,.2,0,.1,0,.2c-.5.2-.7-.4-.3-.7,0,0,.3.3.3.3Z"/>
  <path class="st138" d="M58.3,58.8c0,.7-.6.9-.9,1.4s0,.4-.2.7c-.5.6-.8,0-1.3-.4-.1.2.5.9.7,1-.6.7-1.5,2-1.8,2.8s0,.7,0,.8c-.1.2-.4,0-.4,0-.1.1,0,.4-.2.6s-1.1.8-1.4,1.2c-2,2.7-1.4,5.9-1.6,9,0,.2-.7.2-.9.3,0-.6.3-1.2.3-1.8,0-1.3-.6-2.9-.7-4.2-.1,0-.3-.2-.3-.3,0-.2.9-3.6,1.1-3.7,1.5-.4,2.5-2.5,2.8-3.8l1.3-2.2c-.5-.7-.7-1.8.4-1,.7-.8,1.1-1.6,1.3-2.4.9.2,1.8,1.2,1.9,2.1Z"/>
  <path class="st117" d="M60.9,61.9c.3.6-.9,2.1-1.6,2,0,1.9-.8,4.6-2.6,5.5-.6.8-1.3,1.7-1.9,2.4l-.5,1.4c-.3.5-.9,1.5-1.4,1,.4-1.2.5-2.6.8-3.6s.6-2.5.7-2.6c.2-.3,1.4-.3,2.1-1.1s.4-1.3.7-2.1.6-1.2.9-1.7c0-.2-.8-.7-.9-1.1l1.1.7c.3-.2.4-.7.6-1,.4-.4,1.4-.3.9-1.3.6,0,1.3.8,1,1.4Z"/>
  <path class="st11" d="M60.7,54.3c.3-.3,2,.9,2.2,1.1.5.5.9,2.2.3,2.6,0,.7-.1,1.2-.8,1.6l-.2,1.4c.2.9,0,1.5-.4,1.8,0,0-.3-.1-.3-.2-.6,0-.8-.3-.7-.9-.4-.4-.6-.9-1-1.4s-.7-1-1-1.4c-.6-.6-.7-1.4.4-1.1,0,0,1.5-1.5,1.6-1.6s0-.3,0-.5c-.9-.7-1.4-1.8,0-1.7Z"/>
  <path class="st184" d="M55,77.3c0,0-.1,0-.2,0-.5,0-2.7.1-2.9-.2-.2-1.3.7-1.9,1-2.9.3-.2.5-.3.8-.5.5-.5.8-1.3,1.1-1.9,0,0,.1,0,.2,0-.5.4-.3,1.2-.4,1.5-.2.5-.8,1.3-.9,1.9s.6,1-.2,1.5c.1.8,1.1.2,1.6.6Z"/>
  <path class="st63" d="M50.7,46.3c.7-.7,1.6-.4,2.6.9,2.6,1.7,5.1,4.1,7.2,6.4l.2.6-.7.6c2,1.4.9,2-.5,3.1s0,.3-.5.5l-.4-.3.2,1c-.1-.1-.4-.2-.5-.3-.6-.7-1.2-1.4-1.9-2.1-.4.1-.6,0-.4-.3-.5-.7-1.2-1.4-1.8-2v-.2c-.2-.5.1-.6,1-.5-.4-1.8-1.4-4.2-3.4-4.5-.1.6-.7,1.1-.9.3-.1-.3-.3-.7-.5-1l.3-.3c-.2-.4-.2-.7,0-.7-.1-.4-.1-1,0-1.4Z"/>
  <path class="st79" d="M62.8,64.3l.3.7s0,.1,0,.2c-.2.2-.9.8-1,1-.4.8-.1.8-.8,1.7-.8.3-.8,1-.7,1.7l-2,1.3c-.6,1-1.1,2.2-1.5,3.3-.7.8-.8,1.9-.5,2.9-.5,0-1,0-1.5,0,0-.4-.5-.7-.5-.9s.1-1.6.2-1.9c.3-2,2.1-4.1,3.9-4.9s.9,0,1-.3,0-.2,0-.3c.3-.4,1.2-1.7,1.3-2.1s-.1-.8,0-.8.3,0,.5,0c.3-.2,1-1.3,1.1-1.7,0,0,.1.1.2.2Z"/>
  <path class="st153" d="M61.6,62.8c.5.4-1.1,1.9-1.2,2-.2,0-.5-.1-.5,0,.4,1.1-.5,2.3-.8,3.4s0,.7,0,.9-1.4.6-1.7.8c-.5.3-.9.8-1.4,1.2-.3.3-.5.6-.7.9,0,0-.1,0-.2,0h-.2c.5-.9.9-1.8,1.6-2.6s.9-.5,1.1-.8c.4-.5,1.4-3.3,1.4-3.9s-.1-.6-.4-1h1c0,.1,1.2-1.6,1.2-1.6.2.3.5.6.7.9Z"/>
  <path class="st184" d="M55.2,71.8c-.1-.7.4-.6.7-.9,0,.4-.4.7-.7.9Z"/>
  <path class="st79" d="M57.4,77.1c-.1,0-.2,0-.3,0-.4-.5.6-.7.3,0Z"/>
  <path class="st108" d="M67.3,23.5c.4,0,.8,0,1.2,0,0,.4.2.8.4,1.2.6,2,1.2,4,1.4,6.1-.4-.8-.7-.6-1.1-1s-.9-1.5-1.6-2.3-1.1-1.7-1.5-.9c-.3-.7-.6-1.4-.9-2.3h-.1c-.5,0-.9-.1-1.2-.5h-.2c-.1-.7.3-.6.7-.2.5-.5,1-.4,1.6-.2h1.3Z"/>
  <path class="st61" d="M60.6,19.1c1.7-.5,4.4-1.5,6.2-1.2s.6.5,1,.5c-.2.3-.3.6-.5.8s-.8.8-.9,1c-.3.4-.6,1.5-.9,2,0,1.4,1.1.7,1.9,1.1-1,0-1.9.2-3,.2-.8-.1-1-1.1-.5-1.8l.9-1.4c3-2.7-2.5-1.5-3.9-.9,0,.1,0,.3,0,.3-1.6.6-3.3,1-5,1.4,0,.1-.1.1-.2,0l-1.6.3c-.5.3-1.4.5-1.9.2h-.9c1.1-.4,2.2-.4,3.3-.6,2-.5,4-1.4,5.9-2Z"/>
  <path class="st154" d="M33.8,18.8h.2c2.6.4,5,1.3,7.5,2.3,3.9.9,6,.7,9.9.7s.6,0,.9,0c-.2.2-.4.3-.6.4-2.6.3-5.3.3-7.9-.2-3.3-.7-6.6-1.4-9.8-2.1-.9,0,6.3,5.2,6.8,4.7v.2c-1.3.4-2.5,1-3.7,1.6-2.1.3-4.2.8-6.3,1.6l-.5-.2c0-.1,0-.3,0-.5,0-.2.1-.5.3-.9-.4-.6.6-1.5,1.2-1,.1-.4.7-.5,1.6-.3,1.2-.3,2.5-.5,3.7-.6-1.1-1.1-2.4-2.2-3.9-3.1-.3-.3-1.6-1.6-1.6-1.8,0-.8,1.6-1,2.3-.7Z"/>
  <path class="st2" d="M19,27.3c0,.1-.1.1-.2,0,0-.6,0-.4-.3.4l-.4.2c-.1.9-.2,1.7-.2,2.5.4.7.2,1.6-.3,2.1l-.2.7c.4.3.4.6,0,.9-.1.2-.3,0-.3-.5,0-.1,0-.2,0-.3.1-.9.1-1.8-.1-2.6,0,.3-.1.4-.4.5-.2.9-.4,1.7-.3,2.6-.3,0-.2-.4-.2-.6,0-.4,0-.9,0-1.3,0-1.3.5-3.4.9-4.7s.1-.2.2-.3c.3-.3.5.1.7,0,.4,0,.9-1,1.6-1l-.3,1.4Z"/>
  <path class="st129" d="M15.9,38c-.3-.2-.2-.7-.2-.9,0-1.4-.2-3.4.2-4.8,0,1.9,0,3.8,0,5.7Z"/>
  <path class="st129" d="M16.1,39.6c-.3-.3-.2-1-.2-1.4.3.3.1.9.2,1.4Z"/>
  <path class="st85" d="M19,27.5s-.1,0-.2,0c-.1,0-.1-.1,0-.2h.2v.2Z"/>
  <path class="st91" d="M28.1,66.6c0-.6.2-1.2.3-1.8-.8-.8-.8-1.4-.2-1.7.2-1,.5-2,1.8-1.4s1.4,1.4,1,1.7c.1,0,.4,0,.7,0,.2,0,.2,0,.2.2,0,.4.6.9.5.3.6-.2,1.2-.1,1.8.3.8,0,1.6.3,2.3.6,1.1,0,2.2.1,3.3.6.5,0,.7,0,.8.4l.5.5c1.6,0,2.9,2.8,3.3,4.1s-.5,5.4-2.4,4.1c-1.5.1-3,0-4.5-.3-1.2-1.1-2.6-2.3-4.2-2.8l-.2-.4c-1.2.1-4-1.4-3.4-2.7.4-.6-.8-1.3-1.4-1.3l-.2-.2Z"/>
  <path class="st101" d="M56.4,56.7c.9.9-.9,1.9-1,2.9-.3.2-.8-.6-.9-.5-.1.4.6.7.6.9s-1,1.7-1.2,2c-.4.7-.1.3-.3,1s-1.4,2.5-1.6,2.7c-.4.5-1.2.6-1.2.6,0,0,0,.5,0,.7-.4,1.1-.9,1.9-.8,3.1-.3.4-.5.8-.5,1.3,0,.9.6,2.4.5,3.1-.2,1.5-1.3,1.7-2.6,1.5.4-.7-.2-.5-.5-.9s-.5-.9-.6-1c-.2,0-.3,0-.5-.2-.3-.3-1.2-2.8-.9-3.3,0-1.6-.7-2.6-1.6-3.7v-.5c-1.8-2-3.1-5.7-3.5-8.3s-.1-3.1.9-2.2h.3c0,4.2,2.1,7.1,4.7,10.1.2.5,2.1,4.2,2.5,3.9.2-1.3.8-2.6,1.6-3.7l2.7-3.7v-.4c.9-.7,1.4-1.6,1.6-2.7-.3-.3-.4-.6-.4-.9-1.2.1-.4-1.5.5-.4.3-.8.7-1.4,1.3-1.9l-1.3-1.2c0-.1,0-.3,0-.4-.2,0-.2,0,0-.2,1.1.9,1.3,1.3,2.3,2.3Z"/>
  <path class="st45" d="M38.2,51.2c.4.2.6.6.8,1.2l.3.2c-.2.8-.2,1.4,0,1.8.4,1,.2,2.9-.3,3.8-.2.3-.6,1-.2,1.2l.3.2v3.1c.5.2.6.5.6.9.6.2,2.6,1.7,1.9,2.2s-.2,0-.3.1c-.1.2-.4,0-.7-.3-.2,0-.6,0-.9,0-1.3-.3-2.1-1-3.6-.5,0,0,.2-.3.2-.3,0,0-1.3-.3-1.5-.3-1-.2-.5-.1-1.3-.4s-.7,0-1-.3c-.3.3-.6,0-.5-.3,0,0-.1-.1-.2-.2-.3-.2.3-.7.4-.6s-.2.3,0,0c-1.4.7-1.7-2-1.3-2.2s.2,0,.3,0c-.2-.2-.2-.4.1-.9-.5-1.4.8-1.3,1.8-1v-.4c1.2,0,2,0,2.6-1,.8-.2,1.2-.7,1.2-1.7l.4-.2c.1-.5.3-1,.3-1.6-.3,0-.3-.2,0-.3l.2-.6c-.2-1.2,0-1.7.5-1.5Z"/>
  <path class="st47" d="M40.6,55c.5,0,.6.8.2,1-.5,0-.5.2-.6.6-.6,2,1.6,7.5,2.8,9.3s.4.2.6.5,0,.7,0,.8.6.3.8.6c.5.7,1,2,.5,2.9h-.4c-.6-2.2-1.7-3.7-3.2-4.7.4-1.2-1.5-1.7-1.9-2.2s0-.5-.2-.7-.3-.1-.4-.3-.1-3-.1-3.4c-.4,0-.1-1,.2-1.2,0-1.3.1-2.4.3-3.8-.2-.3-.2-.7,0-1.2,0-.5-.1-1.1.4-1.4.1,0,.3,0,.4.1.3.3.5,2.4.4,3Z"/>
  <path class="st169" d="M19,44.4c.3.4.8.6,1.3.4l.3.3c1.6-.8,3.4,2.2,3.9,3.5.4,1.7.8,3.4,1.4,5,.9,2.7,2.1,5.1,5.4,4,.6-.1,1.9,0,1.6.8-.4,0-.7.2-1,.3s-.5-.1-.5,0c0,0,.2.6.1.9s-.4.6-.5.8v.2c-2,.1-2.9-.5-3.8-2.1-.2-.1-.3-.4-.3-.9l-.5-.2-.7-1.8c-.7-2.8-1.7-5.8-4-7.7-.8-.2-1.3-.6-1.7-1.3-.4-.2-.7-.2-.9,0,0,.3,0,.5,0,.7-.5-.3-1.1-2.9-.9-3.4s.7,0,.8.4Z"/>
  <path class="st152" d="M19.2,46.7c.4,0,.9,1,1.1,1.4.4,1.8,1.1,3.5,2,5.2,1,3,2,5.9,3.1,8.7.6-.2,1-.2,1.2,0v-.4c.9,0,1-.4.5-.8-.3-.9-.8-2.7-.1-3.3.1.3.2.6.3.9.2.1.3.3.4.4.9,1.2,2.3,3.3,0,3.5.1.9,0,1.5-.5,2.1.1,1-.7.9-1.4.6-.3-.9-.6-1.8-.9-2.6-.1,0-.3.1-.4,0-.2-.4-.5-1.2-.5-1.6-.4-.9-.7-1.8-1.1-2.7-.3,0-.3-.2-.1-.3-.9-1.6-1.6-3.2-2.1-5,0,0-.2-.1-.2-.2-.5-1.3-1.3-3.7-1.4-5s0-.2.2-.3c0-.2,0-.5,0-.7Z"/>
  <path class="st54" d="M32.1,62.6s.2,0,.2,0c-.2.2-.4.4-.5.6-.6.6-2.8,2-1.9,3s1.2,0,1.8-.3c.2-.3-.9-1-1-1.3.2-.9,1,0,1.3.4s.5.9.4,1.4c-.2,1.1-.6.3-.9.3-.6,0-1.3.5-1.9-.3-1-1.3.8-2.6,1.7-3.3-.2-.7.4-.9,1-.7Z"/>
  <path class="st142" d="M24.8,62.4c.6,1.5,1.1,3.1,1.7,4.7.2.7.2,1.2-.2,1.6-.2,0-.6,0-.7,0-.2-.2-.4-2.7-.6-3.1s-.4-.4-.5-.7c-.4-1.1-.5-2.7-.8-3.9,0-.2.1-.1.2,0,0,.2.7,1.2.9,1.6Z"/>
  <path class="st53" d="M28.1,66.6c.3,0,.6,0,.9,0s1.2.9,1.2,1c.2.2-.2.5-.5.5h-.4c-1.7-1.8-2.1,0-.4,1,0,2.1-2.5-.6-2.3-1.6s.9-1.6,1.5-1Z"/>
  <path class="st91" d="M33,70.9c0,.1.3.2.2.3,0-.1-.3-.2-.2-.3Z"/>
  <path class="st8" d="M24.3,70.4l2.2,2.1c0-.7,0-1.3.8-1.6.3.3.4.7.4,1.3.4,1.1.6,2,.3,3.1.6.4-.1,2.8-.9,2,0-.2-.3-.3-.3-.3-1.1-2.1-1.7-4.4-2.4-6.6Z"/>
  <path class="st70" d="M27.2,58.4c.7.2,1,1.2,1.6,1.5s1.7.3,2.3.4c-.1.4,0,1.6.3,1.9s.5.1.8.3c-.5,0-.7.4-1,.7l-1.2-1.4c-1.2-.6-1,.6-1.3,1.3s-.3.2-.4.4c-.2.4.4.5.5.7.4.6,0,.9,0,1.4s.4.6-.4.9c-.9,0-1.4.9-1.1,1.7s1.7,1.9,1.7,1.1-1.4-.9-1.1-1.8,1.7-.2,2.2.5.2.7.5,1,1.9,1.2,2.1,1.3c.4.1.7,0,.9,0s.2.5.4.6c.2.2.8.2,1.2.4,1.1.6,1.5,1.3,2.7,2s.2.4.2.4.8.1,1.2.2c1.1.2,2.4,0,3.3.1s.3.3.8.2.7-1.3.9-1.9.3-.5.4-.8c0-.5-.4-2.2-.7-2.5s-.4.2-.5,0v-.4c0,0,.5,0,.5,0-1.1-.4-.1-2.1-1.3-1.5.2-.7-.6-1.1-1.2-1.1l-.4-.6c.3.1.5.3.7.3.5.2,1,.3,1.4.6s1.3,1.9,1.4,2.1c.3.5.6,1.4.9,2,.5,1.1.9,2.5,1.4,3.5-.6.2,0,1.1.2,1.5-.8-.3-.4.4-.9.9.7,0,2.4,1.7,1,1.6.4.7-1,.7-1.3.8s-.4.3-.5.3c-.7.2-1.3-.7-2.2-.8s-1,0-1.7-.2-1.3-.5-1.3-.6c1.3-1.6-2.9-2-4-2.2s-3.1-.7-4.2-1.4-.8-1.8-2-1.8-.9,1-1,1.2c0,.4.2.9.3,1.3s-.2.7-.2,1.1.6,1.9,0,2.3-.7,0-.7,0c0,0-.1,0-.2,0,0,0-.3-.5-.5-.2h-.2c0-.2,0-.4,0-.5.8,0,.5-1.2,1-1.6h-.5c0,0,.2-2.1.2-2.1-.4-.7-.7-1.9-.5-2.7s.5-1.8-.9-2.3c0-1.3-.5-2.4-1-3.6l-.6-2.6s.2,0,.3.2c0,.2.6,2,.7,2.1.2.2.6.1.9.3.3-.2,0-.4.2-.7s.3-.3.4-.5,0-1.5.1-1.6c.2-.3,1.3-.5,1.3-.5.1-.2-1.2-2.8-1.4-3.3Z"/>
  <path class="st13" d="M17.5,34c.5.6.5,1.2,0,1.7.1,1.9.4,3.7.8,5.6.3.7.5,1.4.4,2.1.3.2.5.4.7.7.4-.1.7,0,.8.2.3.9-.7.9-1.2.2-.2-.2-.3-.5-.5-.5,0,1.2.4,2.3.7,3.5.3,1.9,1,3.7,1.4,5.5.3.4.4.8.2,1-.7,0-.3-.7-.4-1-.2-.6-.6-1.4-.8-2-1.6-5.7-2.3-11.4-2.4-17.4l.3.5Z"/>
  <path class="st187" d="M20.6,52.9c.3.2.6.8.7,1.1.3.7.6,2.5.9,2.8,1.2,1.7,1,2.2,1.7,4h-.2c-.1-.6-.3-1.1-.5-1.6s-.9-.7-.5-1.1h-.5c0,0,.3-.2.3-.2-1-1.1-1.4-2.6-1.7-4.1s0-.7-.2-1Z"/>
  <path class="st13" d="M16.6,31.1c0-.2.1-2,.7-1.6s0,3.2-.2,3.6c0-.6,0-1.4,0-1.9s-.1-.4-.4-.2Z"/>
  <path class="st182" d="M18.2,49.8c0-.2-.1-.4-.2-.7l.2.7Z"/>
  <path class="st182" d="M18,48.9s-.1,0-.2-.3l.2.3Z"/>
  <path class="st164" d="M70.8,38.9c.1-.5.3-.8.2-1.4.6.6,0,1.9.2,2.9s1.3,1.6,1.4,1.8c0,.3-.2.7-.2.7s.4,0,.6.4.3,1.4.5,1.9c.7,1.7,1.5,3.7,2.3,5.1s.4,4,0,5.1-.7,2-1.1,3-1.5,3.8-2.5,4.4c-1.8,1-2.6-.2-4.1-.8s-.7,0-.7,0c0,0,0-1,0-1.2,0-.3,0-.6,0-.9,0-.2.1-.1.2,0,.3.4.6.6,1.1.6,1.6.7,2.8.8,3.8-.9s1.7-5.9,1.6-8.6-1.8-5.3-2.3-6.2-1.1-1.6-1.6-1.7c0-.3,0-.6,0-.9,0,0,0-.1,0-.2l.2-1c0,0,0-.1,0-.2l.2-1.2c0,0,0-.1,0-.2,0-.2,0-.4.2-.5Z"/>
  <path class="st49" d="M67,30.6c1.6-.5,1.7,0,2.3,1.3s0,.7.2.8.5,0,.8.5c.5.6.3,1.3.3,2-.9-.7-.6-.2-.8,0s-.5,0-.5.2c-.3.4-.5,5.1-.9,6.3s-.8,1.6-1.2,1.6l-.2-.4c.1-3.3.3-6.5.2-9.8-.2-.7-.4-1.7-.2-2.4Z"/>
  <path class="st159" d="M67,44.8l.2.4c0-.5.4-.6.6-.8s0-.5.1-.7c.4-.6.9-.9,1.1-1.7s-.4-.8.3-.7c-.7-.5,0-3.3.5-1.6v3.1c0,0,.4.3.4.3l.2-.9c0,.3,0,.6,0,.9.5.3.3.6,0,.8v.7c.3.3.2.4-.3.3,0,.4,0,.8-.2,1.2.2,0,.1.1,0,.2-.7,2.8-1.1-.2-.8-1.5v-.7c-.3.7-1.4,2-2.1,1.9-.2-.2,0-1,.2-1.2Z"/>
  <path class="st107" d="M67.2,43.2c0,0,0,.1,0,.2,0,.2-.1.1-.2,0,0-.1-.1-.3-.2-.5-.5-.1-.5-.7,0-.9l-.2-.4c.1-2.6.2-5.2,0-7.8l.3-.8c0-.2.1-.1.2,0,.3,3.5,0,6.7,0,10.2Z"/>
  <path class="st166" d="M66.1,26.6c.3,1.2.5,2.6.7,3.8.2.2,0,.3-.2.2-.6-.3-.8-1.1-.3-1.6l-.2-.5c-.2,0-.1-.1,0-.2-.4-.5-.7-1.1-.7-1.9-.4-.8-.5-1.5-.3-2,0-.5.2-.4.3,0,.3.6.6,1.6.7,2.3Z"/>
  <path class="st35" d="M67,43.4c.1.1.1.4,0,.5,0,.3,0,.6,0,.9s-.1.8-.2,1.2c.5.3.3,1-.2,1.2-.1.2-.2.1-.2-.2-.4,0-.4-.2,0-.7-.4-.5-.4-.9.2-1.4-.3-.7-.2-1.3.2-1.9-.2,0-.2-.1,0-.2.2,0,.2.3.2.5Z"/>
  <path class="st55" d="M67,30.6c.1.8.1,1.6.2,2.4h-.2c-.6-.6-.7-1.6-.3-2.4l.2-.2s.2.1.2.2Z"/>
  <path class="st49" d="M70.7,39.1c-.5-.2-.4-1.2-.3-1.6s.3-.3.3-.3c.1.6.1,1.3,0,1.9Z"/>
  <path class="st159" d="M70.8,38.9c0,.2,0,.4-.2.5,0-.1,0-.2,0-.3,0-.6,0-1.3,0-1.9,0-.1.1-.2.2-.3v2.1Z"/>
  <path class="st159" d="M70.5,40.8c0-.4-.1-1,.2-1.2,0,.4.1,1-.2,1.2Z"/>
  <path class="st159" d="M70.3,42c0-.3-.1-.8.2-1,0,.3.1.9-.2,1Z"/>
  <path class="st159" d="M67,43.9c0-.2,0-.3,0-.5h.2c0,.2,0,.4-.2.5Z"/>
  <path class="st98" d="M70.3,43c0-.3.3-.6.2-1,.5.1.3.7.5,1s.9,1,1.2,1.4c.5.9,2.4,5.7,2.4,6.6,0,2.6-.3,5.9-1.4,8.3s-1.2,1.2-1.5,2.1c-.4-.3-1,0-1.3,0-.8-.1-1.8-.7-2.7-.6,0-.3,0-.6,0-.9-.2-.3-.1-.7,0-1,0,0,0-.1,0-.2,0-.2.1-.1.2,0,.3,0,.3.2.4.4,2.6-.5,3.5-1.1,4.1-3.8s.7-7.2-1.9-10.2c-.1-.2,0-.9,0-1.2s.1,1-.3.7c0-.6,0-1,.2-1.6Z"/>
  <path class="st18" d="M66.7,47.7c.2-.9,2.3-1.1,2.3,0v2s.3.3.3.3c.1,2.3-.2,4.5-1,6.6v.9c.2.2,0,1.1-.3,1.2h-.2c0-.2.1-.7-.2-.7-.4.9-.7,1.4-1.6,1.9h-.2c0,0-.1,0-.2,0l-.2-.2c0,0-.2-.1-.2-.2-.1,0,0-.1,0-.2-.2-.3-.3-.7-.5-1-.8-.4-1.1-.8-.7-1.2l.4-.3,1.5.9c1.2-.4,1.5-1.9,1.7-3.1s.8-4.5,0-4.4c-.8.6-1,.4-1-.6-.3-.5-.1-1.5.2-1.9Z"/>
  <path class="st18" d="M67.7,59.8h-.2c0-.3-.1-.8.2-1,0,.3,0,.7,0,1Z"/>
  <path class="st174" d="M66,59.8s0,.1,0,.2v-.2c0,0,0-.1,0-.2v.2Z"/>
  <path class="st174" d="M65.6,59.8l-.2-.2s.2.2.2.2Z"/>
  <path class="st174" d="M65.3,59.5h-.2c0,0,.2-.2.2-.2,0,0,0,.1,0,.2Z"/>
  <path class="st174" d="M50.7,43.7c.5.3.5.5,0,.7.2,0,.1,0,0,.2.2.2.2.3.2.5,2.4,1.2,4.6,2.6,6.7,4.1.7,0,.9.3.8.7.6.2,1.1.6,1.6,1.2.9.4,1.8.8,2.6,1.4.9.3,2.1-1.9,2.3-2.6.3-.3.8-.8,1.2-.7.3.2.2.9-.2,1-.5,2-1.1,4-1.6,5.9,0,.5,0,.7-.3.9.1.7.5.5.7,1s0,.2,0,.3h-.6c.2-.3-.5-.3-.8-.2.2.8-.2,1.4-.1,2.2s.3.5.3,1c0,.7-.6,1.9-.9,2.7-.4-.2-.5-.7-.7-1,.2-.6,0-1.4,0-2s.2-1.3.2-1.4c.1-.4.5-.3.7-.6.4-.8.5-2.6,0-3.3s-.4-.1-.5-.2c-.5-.5-1.1-.9-1.5-1.1-1.8-1.4-3.3-3.4-5.2-5s-1.8-1.2-2.5-1.8-.8-1.3-1.3-1.3-.7.5-1.1.2c-.2-.6-.4-1.1-.5-1.7l.3-.5c-.4-.3-.6-.5,0-.9,0-.1,0-.1.2,0,.3.2.3.4,0,.5Z"/>
  <path class="st37" d="M50.5,46.5c-.3-.4-.6-.6-.8-.4-4.3-.1-7.5-6.3-6.2-10.1s3.5-3.9,4.6-4.4c1.2-.7,1.6,0,1.8,1.1.2.2.2.5,0,.7-1.6-.8-3.4,1.4-4,2.8-1.2,2.5.9,7,3.5,7.9.7-.7,1-.6,1,0,0,.8.1,1.5.2,2.3s0,.9,0,1.4c-.7.3-.7-.9-.2-1.2Z"/>
  <path class="st118" d="M41.8,53.8l-.3-.3c-.2-.5.5-5.4.9-5.8s.3-.3.5-.3c.7-1.3,2.2-1,3.3-.6,1.2.6,2.4.9,3.6,1,.6-.6.8-.1.9.5,0,.4.1.8.2,1.2.5.3.5,1.4,0,1.7-.6,0-.6-.8-.2-1-.3-.2-.8-.2-1.3-.1-3.6-1.5-6.6-.6-6,3.9l-.3.2c-.2.5-1.2,0-1.2-.5Z"/>
  <path class="st21" d="M50.8,49.6c.7.4.2-.8,1.1-.7,2,.3,3.6,3.5,3.6,5.3-.3,0-.6-.2-1-.2s-.4.2-.4.2c-.2,0-.5-.2-.7-.3-.5.2-.9-.1-1.2-.9-.7.5-2.1-1.2-1.4-1.7,0-.6,0-1.2,0-1.7Z"/>
  <path class="st145" d="M54.1,54.3v.2c-.4.3-.8,0-.7-.5.2,0,.6.3.7.3Z"/>
  <path class="st9" d="M50.7,44.6c.2,0,.4,0,.5,0,2.3,1.4,5.1,2.8,7.6,3.9s3.3,1.3,4.9,1c.6-.6,1.6-1.7,2.6-1.6.2.5.2,1-.2,1.4-.2.4-.8.6-.9.9-.3.4-.7,1.5-1,1.8s-.9.7-1,.7c-1,.5-.9-.1-1.4-.4-.9-.4-1.3-.4-2.2-1.1s-.5-.7-.7-.8-.5,0-.7-.2c-.3-.2,0-.5,0-.6s-.5,0-.7,0c-.7-.3-1.6-1.3-2.2-1.6s-1.3-.6-2.1-1.1-1.5-1.3-2.5-1.5c0-.1,0-.5,0-.7Z"/>
  <path class="st57" d="M66.5,49.6l.3.7c.1-.2.5-.3.6-.4s-.3-.5.1-.3.7.7.8,1c.2,1.3-.2,4.3-.7,5.6s-.5,1.3-.6,1.4c-.1.2-.5.1-.7.2s-.1.3-.2.3c-.5,0-1.4-1-2-1-.1-.7,0-.9,0-1.6s.5-1.2.7-1.8c.4-1.1.7-2.3,1.2-3.4h.2c-.3,3.4-.3,1,0-.6s0,0,.2,0Z"/>
  <path class="st137" d="M66.7,47.2c.5.1.4.3,0,.5,0,.6-.1,1.3-.2,1.9-.1.9-.4,4.5-.8,5s-.2.2-.3.2c-.1-.2.4-3.9.5-4.5s.1-.7.2-1,.1-.9.2-1.4c-.4-.3-.4-.8.2-.9l.2.2Z"/>
  <path class="st119" d="M61.4,68c-.7,1-1.1,1,0,2.1,0,0-1,.2-1.2.3s-.2.4-.4.5-.3,0-.3,0c0,0-.8.9-.8,1-.1.3-.1,1.4-.2,1.6s-.7.5-.7,1c-.2,1.2,2.5,1.3.8,2.3l.4.3c-.3,0-.8.1-1.2.2h-.3l-.3-.2v.2c-.2,0-.3,0-.4,0-1.1-.7,0-1.6-.5-2.5,0-.1.2,0,.3,0,.4-.2,1.2-3.1,1.7-3.8s2-1.1,2.2-1.5-.2-1.5.9-1.4Z"/>
  <path class="st156" d="M28.2,33l.2.2c.1,0,.1.1,0,.2.2.4.1.9-.2,1.6-1.5,2.9-1.5,5.3-.1,8.2.5,3.7,1.1,7.2,2.1,10.7.6,1.7-1.6,4.5-3.1,2.7-1.3-2.6-2.2-5.3-2.8-8.2l-1.6-2.4c.1-.9-.6-1.2-2.2-.8,0,0-.4.3-.7.1s-.6-.6-.8-.8c.8.7.7.3,1.2-.2-.4-.5.2-.8.5-.3.5-1,2.2-2,2.9-.6,1,0,1.9-1.2,1.8-2.1-1.3-1.3,1.7-8.6,2.5-8.5l.3.3Z"/>
  <path class="st156" d="M30.2,27.3c-.6,1.9-1,3.8-1.4,5.8h-.2c0,.3-.1.3-.2.1l-.2-.2c-.5,0-.5-.1-.6-.5s.6-3.1.7-3.4c.3-1,1-1.8,1.7-2.6h.5c0,.3-.2.6-.3.8Z"/>
  <path class="st99" d="M30.2,25c.1-.7,2-.4,1.6.3-.9.2-.8.6-1.2,1-1.7,1.9-2,2.8-2.3,5.3s-.5.6,0,1.3c-.4,0-.4.2-.5.4-1.2,1.8-2.2,4.7-2.2,6.8s.3.7.3,1.2c0,.8-.7,1.9-1.5,2.2-1.4.5-.8-.8-1.8-.6s-1,.8-1.8.9c-.7,0-.7-.2,0-.7v-.5c0,0,1.1-2.1,1.1-2.1-.2-1.1.1-2.2.8-3.2,1-1.6,1.9-3.3,2.6-5.1,0-.9.3-1.3.8-1.3.1-2.3,1.3-4.7,3.4-5.7v-.3c.2-.1.4-.1.6,0Z"/>
  <path class="st99" d="M28.4,33.2c0,0-.1-.1-.2-.2.2,0,.1,0,.2.2Z"/>
  <path class="st99" d="M28.4,33.3c0,0,0-.1,0-.2h.2c.7,0-.2,1.2-.2.2Z"/>
  <path class="st81" d="M40.1,20.4c.4.1,1,.5,1.4.7-2.3-.5-5.7-2.1-7.6-2.3-1-.3-2.1-.2-2.3.9l1.6,1.6c.8,1.3-1.8,1.7-2.8,1.5-1.6,1.4-1.6,2-.1,1.8v.4c-.1,0-.3,0-.5,0-.3.6-2.3.3-2.6-.3-.9-.2-.5-2,.3-2.3.8-.5,2.3-1.5,2.9-2.1s.4-.6.6-.8c-1.3-.7,1-1.3,1.7-1.3,1.4,0,6.1,1.5,7.5,2.1Z"/>
  <path class="st69" d="M33.8,18.8c-.7,0-1.6-.1-2.1.4,1.4,2.5,4.3,3.1,5.9,5.2-.1.5-3,.6-3.5.7s-.5.3-.8.3c-.5,0-1-.2-1.6,0-.3-.6-1-.3-1.6-.3-.4-.4-1.3,0-1.7-.5,0-.4,1.5-2,1.6-2.1.3,0,.7,0,1.1,0s1.7-.4,1.8-.7c-.1-.3-.5-.8-.7-1s-1.2-1-1.2-1c.3-1,1.9-1.5,2.8-1Z"/>
  <path class="st30" d="M18.5,28.8c.8-.1-.1.7.5.9h.2c-.3,1.6-.4,3.2-.5,4.8.4,1.1.4,2,.2,3.2,1,1.4-1.2,2-1.3.2v-2.1c-.2-.6-.1-1.2-.1-1.7s0-.6,0-.9l.2-.7c0-.7.2-1.4.3-2.1-.2-.5-.1-1.5.5-1.6Z"/>
  <path class="st90" d="M18,30.4l-.3.3c.1-.7,0-2.4.2-2.9s.5-.2.7-.4,0-.9.5-.5c0,.1-.2.3-.2.4s0,.1,0,.2c0,.2-.1.4-.2.5,0,0,0,.1,0,.2,0,0,0,.1,0,.2l-.2.3c0,0,0,.1,0,.2-.2.5-.4,1-.5,1.6Z"/>
  <path class="st2" d="M18.9,28c0,0-.1,0-.2,0,0-.2-.1-.4.2-.5,0,.2,0,.4,0,.5Z"/>
  <path class="st85" d="M18.5,28.7c0-.1,0-.3.2-.3,0,.1,0,.3-.2.3Z"/>
  <path class="st85" d="M18.7,28.1c0,0,0-.1,0-.2h.2c0,0,0,.2-.2.2Z"/>
  <path class="st165" d="M63.9,23.8c.3,0,.6,0,.9,0,0,0,.2.4.3.5.5,1.1.9,2.8,1,4-.2.3-.2,0-.2,0,.2,2.1-.3,3.8-1.9,1.2-.7.1-1.4,0-2,0l-1,.9c-2.3,1-4.5,2.1-6.8,3.1h-1.8c.4,2.5.4,4.9-.1,7.2,1.1-.4,2-.6,3.2-.2,2.6,1,5.8,1.1,8.6.9s.7-.4.7-.5c-.2-1-.9-5.4.2-5.7s1.2,2.6.7,3.3v1.4c-.2,1.2,0,1.4,1,2,0,.3,0,.6,0,.9s0,.1,0,.2c-.2,1-1,.7-1.6.2-.7.5-1.6.5-2.6-.2-2.4-.5-5.2-.9-7.6-.6l-.7-.3c-.8.8-1.7,1-2.6.6-.6.8-1,.9-1.1.4,0-.4-.1-.8-.2-1.2-.4-1.7-.7-3.4-.2-5.2.1,0,.2,0,.2,0,0,.3.2,2.2.1,2.5l-.2-2.4c.1-.8,0-1.1-.2-.9-.5,0-.7-.8-.2-1-.4-.3-.6-.9,0-1.1,0-.6,0-1.2,0-1.8,0-.5,0-.7.3-.7.3-.2.4,0,.5.2.5-.7,1.3-.7,2.3-.2h.8c1.5-.7,3-1.4,4.6-2,.4-.4.7-.8,1.1-1.1-.2-1.3.4-2.3,1.8-3-.9-.1-1.4-.5-1.4-1.1,1.2,0,2.4-.2,3.5-.2Z"/>
  <path class="st25" d="M61.4,23.8c0-.3.4-.2.7,0,.1-.1.2-.1.3,0,.4-.1.8-.1,1.2,0h.2s-.2.2-.4.2c-1,0-1.9-.1-2.9.2.3.7,1.7.1,1.5,1s-1.5,1.2-1.8,1.5,0,1.5-.1,1.7-.4,0-.5.1c-.2.2-.2.5-.4.7-.6.6-3.1,1.3-4,1.7s-.6.7-1.8.6-1.8-1.2-2.5.5l-.6-.9c-.3-.3-.4-.7-.4-1.3h-.2c0,.2-.1.2-.2,0-.2-.4-.2-.9,0-1.6,0-.3-.1-.6-.2-.9-.1-.1-.1-.2,0-.3-.1-.2-.2-.4-.2-.7-.2.2-.2,0-.2-.3-.3-.3-.5-1.2-.3-1.6-.2,0-.1-.1,0-.2.2-.2.5-.2.9-.2,2.8-.6,5.7-.6,8.5-.3,0-.2,0-.1.2,0,1-.3,2-.3,3-.2Z"/>
  <path class="st131" d="M60.9,19.5c1.5-.9,3.2-1.3,5-.9.7.8-.4,1.4-.8,2s-.5.8-.8,1.2c-.6,1-.4,1,0,1.9-.2,0-.6,0-.7.2-.4,0-.8,0-1.2,0-.2,0-.1-.1,0-.2.1-.2.3-.1.5,0,.2-.1,0-.2-.5-.4.3-1.3.7-2.6,1.2-3.9h0c-.7.3-2.1.6-2.7,0Z"/>
  <path class="st126" d="M63,23.6c-.2,0-.4,0-.5,0-.1.1-.2.1-.3,0-.6.2-1.3-.3-1.1-1,.8-1.5-.4-1.9-3.8-1.2-2.8.7-5.4,1.1-8.2,1.2-.6,0-7.8-.4-7.9,0s.8,1.1,1.1,1.3v.5c0,.5-.2.4-.5,0-.2.4-1.3.3-1.4,0-1.3-.3-2.5-1.4-3.3-2.4-1.2-.4-2.6-1.8-.5-1.7,2.3.6,4.6,1.1,7,1.6,3.1.3,5.5.1,8.5-.2s1.3,0,1.9-.2l1.6-.3c0,0,.1,0,.2,0l3.4-.9c2.7-1.3,4.7-.6,3,2.6.4,0,.6.3.6.7Z"/>
  <path class="st40" d="M60.9,19.5c.6-.2,1.3,0,1.8-.2s.9-.7,1.2-.2-.2,1.2-.4,1.7-.8,2.3-.7,2.5.9,0,.9.4c-.2,0-.5,0-.7,0-.2-.4-.9-.1-1-.6s1.3-2.2.2-3c-.4.2-1,0-1.3,0s-1,.5-1.5.6c-1,.2-2.4.4-3.5.6l5-1.7Z"/>
  <path class="st40" d="M55.7,21.2c-.4.4-1.1.3-1.6.3.4-.3,1.1-.3,1.6-.3Z"/>
  <path class="st67" d="M43.7,21.9c-1.3-.1-2.6-.3-3.9-.6s-2.4-.7-3.2-.8-.6,0-.8.3,1.4.7,1.5,1.1c.3.8,1.1,1,1.5,1.3s.3.6.5.8c.4.3,1.8.5,2.4.6,1.3.6-.6.9-1.3.9-1.6,1-3,2.4-4,3.9.4.4.6.8.8,1.4l1.7,1v.4c-.7,1.3-1.9.8-3.1.2-.2,0-.5,0-.7.1.4,1.2-.3,1.6-1.4,2.1-.4.5-.8,1-1.3,1.4.4.4,0,.7-.3.9.2.4,0,.7-.6,1l-.6,1.6c-.7.3-1.3.7-1.8,1.2-.2.5-.6,1.2-.9.5-.3-1.3-.3-2.6,0-3.8l.2-1c-.1-.1,0-.4,0-.5,0-.3.1-.6.2-.9,0-.2,0-.5,0-.7-.3-.3-.3-.6,0-.8.1-1.9.6-3.9,1.3-5.6,1.1-.3,2.3-.9,3.4-1.2s2.7-.3,3.5-.7,1.2-.8,1.9-1,1,0,1.4-.3c-.6-.4-1.3-.4-1.9-.7s-4.3-2.9-4.7-3.5-.4-.7-.3-1.1l10.3,2.6Z"/>
  <path class="st122" d="M30.2,27.8c-.2,2-1.1,4.3-1.4,6.4,0,.3,0,.5-.2.7.1,0,.1.1,0,.2-.4,2.5-.5,4.9-.2,7.4.5.2.5.4,0,.5.3.7.9,3.9.7,4.5s0,.1-.1.2h.3c.6-.9,1.1-1.8,1.7-2.7h.5c.4-.8,2.2-1.3,2.8-.8s.3.3,0,.5v.5c-2.1,1.7-3.6,5.1-2.1,7.5,0,.5.2.8.8,1,.8,1.4.9,1.5,2.1.2s1.7-2.9,1.4-4.7l.3-.4c.5-.4.8.2.9.7.2.7,0,3,0,3.8,0,.1,0,.2,0,.3,0,.5-.2,1.1-.3,1.6,0,.4-.3,1.6-.6,1.9s-.6.1-.8.3-.3.5-.8.8-1.4.2-2,.3c-1.1-1.1-2.3,0-3.6-.2-2-.4-2.8-2.1-3.4-3.8-1.2-3.2-1.2-6.5-4-8.9s-1-.4-1.4-.4c.4.1.3-.3.5-.3.4-.1,1.7-.2,1.9.2s0,.7.2,1.1c.2.6,1.4,1.7,1.5,2.1.2.8.2,1.8.5,2.6s1.7,5.1,2,5.4,1.2.7,1.4.6c.2-.5,1.1-1.3,1.2-1.5.4-.9-.9-4.4-1.1-5.6s-.2-3-.4-4.4c-.4-2-1.6-4.2-1.7-6.1s1.2-4,1.7-5.8l.3.2c.2,0,0-.2,0-.3-.2-.7.6-2.8.6-3.6.3-.8.6-1.5,1-2.2,0,.2,0,.4,0,.5Z"/>
  <path class="st13" d="M17.5,33.2c0-.2,0-.6.2-.7,0,.2.1.6-.2.7Z"/>
  <path class="st54" d="M32.4,63.8c.1.1.9.9.9,1,0,.8-1.3-.5-1.5-.8s-.4-.3,0-.5c.2.1.4.2.5.3Z"/>
  <path class="st104" d="M53.6,58.6c.3.4.9.5.8,1.2-.3,1.2-1.2,2-2,2.8-1.4,1.8-2.6,3.6-3.7,5.5-.4.4-1,.7-1.5.3l-1.6-2.5c-2.7-3-4.1-5.3-4.4-9.3s0-2.2.5-2.5c0-.2.1-.1.2,0l.4.4c.3,3.6,1.6,7,4.2,9.6s3.4-.3,4.4-1.8c1.1-.9,2.1-2.1,2.5-3.5l.4-.2Z"/>
  <path class="st111" d="M41.6,54.1l-.3,2.5c.3,1.7.6,3.6,1.4,5.1,1.3,2.3,3.3,4.2,4.6,6.5.9.5,1.9-1.5,2.3-2.2.9-1.4,1.5-2.2,2.7-3.4,0,.3-.2.5-.3.8-1.5,2.1-2.7,3.5-3.5,6.1s0,1.4-.9.8-1.3-1.9-1.5-2.2c-.3-.5-.5-1.4-.8-1.9-1.5-2.1-3.5-3.9-4.2-6.6s-.2-2.4-.4-3.5,0-.7-.2-1c-.1-.4-.1-1,.3-1,.1-.7.8-.5.7.2Z"/>
  <path class="st3" d="M35,39.6c2.6-.5,4.7,1.4,4.8,4.1.9.8.9,1.4.1,1.8.2,2,.3,3.9.2,5.9l-.4.5c-.1.9-.4,1.7-.5,2.6-1,0,.1-.8-.1-1.5s-.3-.2-.4-.3c-.2-.4-.5-1-.5-1.4l-.4-.3v-3.1c0-1.8-1.8-6.7-4.1-4.9-.8.7-1.5,1.4-2.3,2.1-.5.9-.4.6-1,1.4s-.9,1.5-1.1,1.7c-.4.4-.3-.1-.4-.3.2-.7.5-1.4.8-2.1-.1-.5,0-.9,0-1.2,1.5-1.4,2.9-2.8,4.4-4.2l.4-.2c0-.3,0-.5.4-.4Z"/>
  <path class="st132" d="M38.2,51.2c-.9.4,0,1.5-.7,2.1,0-1.1,0-1.4-.3-2.5s.3-1.5-.6-2l-.4-.3c-.3-1.3-1.1-2.4-2-3.3v-.4c0,0,0-.2-.2-.2s-1.2-.1-1.3-.1c-.5,0-.9.4-1.3.5.2-.4.7-.3.6-1,.5-.3,2-2,2.4-1.9s1.6.5,1.8.6c.5.4,1.9,3.3,2,3.9.2,1.4-.2,3.2,0,4.6Z"/>
  <path class="st175" d="M38.7,59.5c-1.2,1.2-3.2.2-2.4-1.4s2.3-.7,2.2,0-3,2.5-.7,0c-1.5-.3-1.6,1.8,0,1.6s.3-1.1,1.1-1.2c0,.4-.2.9-.2,1.2Z"/>
  <path class="st158" d="M34.9,61.4c0-.6.5-.9.9-1.3-1.4-.6-1.8,1.6-.4,1.6s.9-1.4,1.2-1.4c.9,0-.4,2.8-2,1.6s.6-3.7,1.9-1.9c-.2.2-1.3,1.5-1.6,1.3Z"/>
  <path class="st99" d="M33,61.2c.7.1,0,.7.3,1.4s1.6,1.4.7,1.4-2.1-2.2-1-2.8Z"/>
  <path class="st132" d="M37.1,55.2c0-.5-.2-1.2.3-1.6,0,.5.2,1.3-.3,1.6Z"/>
  <path class="st146" d="M50,31.6c.1.3.2.7,0,1-.8-.5,0-1.3-1.2-1s-4.6,3.2-5,4.5c-.6,2,.4,4.8,1.3,6.6s2.9,2.7,4.2,2.9.7-.2,1.2-.3c0,.3,0,.7,0,1-.4,1.1-1.4,1.1-3,.3-.6-.5-4.5-2.3-5.1-1.9s-.4.9-.4,1c.7.6,1.1,1.6-.2,1.2,0,.9,0,1.6-.5,2.2v.7c.4,1.1.3,3-.3,4,0,.4-.1.7-.3,1,0,0-.2-.2-.2-.3-.2-.9-.2-2-.6-2.8.3-2.5-.2-4.8-.2-7.3l.6.3c.2-.4-.5-.8-.7-1.2s0-.4,0-.7c-.1-.3-.7-1.6-.9-1.9-1-1.7-2.6-.8-3.5-1.6-.6.4-1.4-.8-1.4-1.4,1.1-1.4,3.3-2,5-2.4,1.7.7,3.1,0,4.3-1.3,1.1-1.4,2-2.4,3.5-3.3s2.1-1.1,2.7-.8c.3,0,.5.4.6,1,0,0-.3-.5,0-.5-.2-.4-.2-.7,0-.9h.2c.4.4.4,1.2,0,1.6Z"/>
  <path class="st10" d="M20.1,46.7c.5.7,1.4.7,2,1,1.1.7,2.9,3.8,3.2,5.1.6,2,.7,2.8,1.6,4.8v1.8c.3.5.3,1,.5,1.5s.5.1.4.5c-.1.7-.8.6-1.2.8-.5,0-1.2-1.2-1.4-1.7-1.1-4.9-2.3-9.2-5.2-13.3l.2-.4Z"/>
  <path class="st105" d="M20.1,46.7c.8,1.5,1.1,2,2,3.3,2.2,3.2,2.2,6.8,3.3,10.2s.8,1.4,1.1,1.9c-1.4.4-1.5.5-2-1-.8-2.5-1.5-5.1-2.5-7.5s-1.4-2.5-1.9-5-.7-1.3-.8-1.9c0-.7-.4-1.4-.3-2.1.2.8.8,1.4,1.1,2.1Z"/>
  <path class="st118" d="M70.1,44.6c.1-.3.1-.8.3-.9.1.4.1.8.3,1.2s.7.9.9,1.2c2.2,3.4,1.7,7.4.5,11s-1.2,1.4-1.7,1.6c-1,.5-1.8.2-2.6.9-.2-.3,0-.7,0-1,0-.9.2-1.3.3-2.1,1.4.3,2-1.3,2.4-2.4.6-1.7.9-3.1-.5-4.5-.4-.1-.2-2.6-.1-2.5.2.1,0,.4-.2.1-.2-.2-.2-.5,0-.9,0,0,0-.1,0-.2.1-.4.2-.8.2-1.2,0-.1.1-.2.2-.3Z"/>
  <path class="st97" d="M66.8,46l1.4-1.3c.4-.3.2-1.2.9-1.1.4,1.3,0,2.5.2,3.8l.5-1c0,.3,0,.6,0,.9.3.8.2,2.2-.5,2.8l-.4.2c-.2-.4,0-2.6-.3-2.8s-.7,0-.9,0l-1,.3c0-.2,0-.3,0-.5,0-.4.1-.8.2-1.2Z"/>
  <path class="st97" d="M69.8,46.1c0-.5,0-.6.2-1.2,0,.4.2,1-.2,1.2Z"/>
  <path class="st49" d="M66.1,28.3c0,0,0,.1,0,.2l.2.5c.1.5.3,1,.3,1.6.1.8.3,1.6.3,2.4.3,3.1,0,5.9-.2,9-.5.4-1.3-.4-1.4-.8s.2-.8.2-1.2-.2-1-.1-1.3c0-1.1,1.1-2-.1-3.2-.3,0-.6,1.8-.6,2.2,0,.8.5,2.9.4,3.4s-.7.6-1,.8c-1.8-.2-4.1.1-5.9-.1s-2.8-1-4.6-1-1.1.6-1.8.5c-.1-.8.3-1.4.4-2.2.2-1.9-.2-3.8-.3-5.6.3-.4,1.7-.1,2.1-.2,1.1-.2,4-1.9,5.2-2.5s1.1-.3,1.5-.6.9-.9,1-.9c.3,0,.6.2.8.2.5,0,.8-.3,1.4-.1s.6,1.2,1.3,1.4c.3,0,.4-1.6.4-2s-.2-.6.4-.3Z"/>
  <path class="st165" d="M66.3,29c-.2,0-.2-.3-.2-.5.2.1.1.3.2.5Z"/>
  <path class="st59" d="M50.7,43.7c.6,0,1.1-.2,1.7-.3.6.2,1.2.4,1.9.5.2-.2.4-.4.6-.4.6,0,1.6.1,2.2.2,2,.5,3.9.7,6,.6.2,0,.5.2.5.5,1,0,2,0,3,.1,0,.5-.1.9-.2,1.4,0,.6-.3.8-.7.8-1.6,1.8-4.4,1.3-6.5.6l-5.5-2h-.7c-.7-.6-1.5-1-2.4-1.3,0-.2,0-.5,0-.7Z"/>
  <path class="st25" d="M66.8,43c0,.6-.1,1.3-.2,1.9-.2.5-.2.2-.5.3-.6,0-2,0-2.5,0s-.2-.4-.6-.4c-.6,0-1.8.1-2.5,0-1.7-.1-3-.8-4.9-.7s-1-.6-1.2.6c-.6-.7-.9-.5-1.5-.6s-.3-.3-.6-.3c-.4,0-1,.6-1.7,0,0-.2,0-.3,0-.5.9,0,.3-.4.8-.7s.9.2,1.3.1,1.2-.9,1.6-.9.4.3.7.3,1-.2,1.6-.2c1.6.1,4.3.4,5.9.7s1.3.6,1.6.6c.4,0,.8-.4,1-.4s.8,1,1.6.1Z"/>
  <path class="st148" d="M50.7,44.4c.5,0,1.7-.3,1.2.3.6-.2,1,.5,1.3.6s.5,0,.7,0c2.7.9,7,3,9.7,2.6s1.5-.5,1.5-.5c.3-.2.5-.6.6-.7s.5.2.9-.4c0,.2,0,.5,0,.7s-.1.5-.2.9c-.3.4-1.2.7-1.4,1s-.2.6-.2.6c0,0-.5-.2-.5-.2-.3.2,0,.7-1.1.7-2.7-.2-4.7-1.2-6.9-2.3s-3-1.4-4.3-2.1-.8-.6-1.2-.9c0,0,0-.1,0-.2Z"/>
  <path class="st150" d="M69.8,47.2l.3-.3c.1.7,0,1.7.2,2.4s.4.2.5.5c.7,1.5.9,1.7.5,3.4s-1.1,3.1-1.9,3.5-.4,0-.5,0-.3.6-.6.8v-1c.2-2.2.6-4.4,1-6.6s.4-1.9.5-2.8Z"/>
  <path class="st12" d="M50.1,32c0,.9,0,2,0,2.9-.2.2-.6.1-1.2-.1-1.7,1.9-1.7,4.9.3,6.6,1-1.4,1.3-1,1,.6-.1,1.9-1.2,2-2.5.8s-2.5-4.5-1.8-6.4,2.9-4.6,3.9-2.8-.4,0,0-.3c0-.2,0-.5,0-.7,0-.3,0-.7,0-1,.3-.1.3.1.2.3Z"/>
  <path class="st56" d="M50,33.3c0,.2,0,.3,0,.5-.5-.8-1.6-.3-2.1.3s-1.4,2-1.6,2.6c-.6,1.9.7,6.1,3,6.5s.4-.6,1.1-1.2c.2.2,0,.6,0,.9,0,0,.1.2.2.3,0,.3,0,.6,0,.9-.4-.8-.4.6-1.3.2-1.4-.5-2.7-2.4-3.3-3.7-1.1-2.8-.8-4.7,1.4-6.8s2.1-1.7,2.7-.5Z"/>
  <path class="st145" d="M43,54.3l.4.3c-.2,1.9,1.9,7.6,4.1,7.6s4.3-3,4.9-4.4c-.4-.3-.6-.6-.5-.9-.5.1-.6-.1-.3-.5,0,0,.1,0,.2,0,.3-.3.3-.2.3.2h.4c.3.4.5,0,.5-1.2.1-.6.7-1.3,1.2-.7.2.3,2,1.6,1.7,1.9-.8,0-1.3,2-1.7,2.1s-.5-.6-.9-.5c0,0,.3.4.3.5,0,1.1-1,2.3-1.7,3.1s-.6.5-.9.8c-.9,1.1-.7,1.5-2.3,2.2s-1.4.5-2.4-.3c-2.7-2.1-4.4-7-4.5-10.3-.3-.2-.3-.3,0-.3l1.2.5Z"/>
  <path class="st111" d="M41.3,50c-.3-.3,0-.6,0-.7.7-.3.7.8,0,.7Z"/>
  <path class="st40" d="M50.7,50.3c0,.5,0,.6.2,1,.3,1.1.5,1.1,1.4,1.7.4.4.5.5.6,1s-.3,2.3-.7,2.4c0,0-.3-.1-.3-.2-.3-.1-.7-.4-.5-.7l-1.1-1.8c-2.1-2.4-1.1-.5.3.7v.4h-.6c0,.1-2.2-1.9-2.2-1.9-2,.1-2.5,2.3-1.8,3.9,1.1,2.4,2.9,1,4.4-.2.3-.4.6-.6,1-.6,0-.2.3,0,.3.2.1.2.2.4.3.5.5.5-.2,1.1-.6,1.5l-1.9,1.3c-3,3.3-5.4-.7-5.6-3.9,0-1.3-.2-3.3.5-4.4,1-1.5,4-1.9,5.5-.9.5-.5.8-.6,1-.2Z"/>
  <path class="st94" d="M43,54.3c0-.9,0-2.7.4-3.5.6-1.5,2.8-1.7,4.3-1.5s2,1,2.5.4,0-.7.5-.6c0,.4,0,.8,0,1.2-.4,0-.6.5-1,.5s-1.2-.6-1.7-.6-2.2.4-2.4.5c-.7.2-1.1,1-1.5,1.6.2,2.9-.6,4.8,1.5,7.2s0,.3,0,.4,1.3.6,1.4.6c.3,0,1.2-.3,1.5-.5.4-.2.4-.6.6-.7.8-.6,1.9-1,2.4-1.7s.2-.5.4-.7c.6.7,1.2.5.5,1.6s-2.3,2.7-2.7,3-2.1,1-2.2,1-.9-.4-1.1-.5c-2.3-1.6-3.2-5.1-3.4-7.8Z"/>
  <path class="st162" d="M41.3,49.3c.1-.9.1-1.9.2-2.8l.9.5c0-.5-.7-.6-.7-1.1s.6-1,.3-1.5c1,.3,1.7.2,2.7.5s2,1.1,3,1.5,1.9.7,2.1.6c.3-.2.3-.6.7-.6,0,.4-.1,1,.2,1.2,0,.2,0,.5,0,.7-.3-1-.4-.3-.8-.2-1.3.3-4.1-1.6-5.7-1.3s-1,1-1,1c-.1,0-.3-.2-.5,0s-.5,2-.5,2.2c-.1.8-.3,2.9-.3,3.7s0,.2,0,.3h-.2c-.2-.2-.4-.4-.7-.2.1-1.4.1-2.6.3-4s.3-.5,0-.7Z"/>
  <path class="st94" d="M53.4,53.9c.2.2.5.3.7.5,0,0,0,.1,0,.2-1.5.4-.3,1.8-1.4,2.5-.3.1-.5-.5-.7-.6,0-1.1.8-2.6.2-3.5.4.3.8.5,1.2.9Z"/>
  <path class="st133" d="M27.4,22.4l-.3.3c.1.4-.3,1.5,0,1.9s2.1.4,2.6.4c.8.5-.2.7-.3.7-.4.4-1.3,1-1.5,1.2-.5.6-1.4,2.9-1.4,3.6s0,.6.4.9l-1-.3c0,.6,0,1.1-.3,1.7-.7,2-3.1,5.1-3.4,6.9s.1.6.1.8-1.2,2.1-1.5,2.7-.4,0,0,.5c-.4,0-.4.2-.5.3-1.2.5-1.2,0-1.6-.9.5-.1,1-.2,1.6-.3-.2-.5-.2-.9,0-1.4l-.6-.7c.3-3,1-6.2,2.2-9,0-1,0-2,0-2.9l4.5-3.8c-1,0-1.9-.1-2.6-.5,0-.6.2-.2.6-.4s.3-.3.3-.3c.8-.4,2.1-1.1,2.8-1.6Z"/>
  <path class="st85" d="M23.7,24.7c1,0,1.9.1,2.9.2s.5-.1.4.3c-1.7,1.3-3.3,2.7-5,4.1-.1.2.1,2.2,0,2.7-.1,1.1-.8,2.1-1.1,3s-.6,2.8-.8,4.2-.3,1.1-.3,1.6.6.5.7.9-.1.5-.1.8.4.7.3.8c0,.1-1.9.7-2.1.2-1.1-2.3-1.2-5.1-1.2-7.6.5,1-.4,2.6,1.1,2.9.7-1,0-.6,0-.6,0-.6.2-1.3.2-1.9s-.3-1.1-.3-1.6c0-.8.4-4.2.7-4.9.7-1.6.9-.9,2.1-1.5s2.6-2.4,2.8-3-.1-.4-.1-.6Z"/>
  <path class="st163" d="M50.3,42c0-.5,0-.9,0-1.4-.7.7-.8,1.7-1.8.5s-1.5-3.2-.8-4.9.8-1.5.9-1.6c.6-.5,1,.1,1.5.3,0,.4.2.9.2,1,.4.1.3.7,0,.9,0,1.7.1,3.5.2,5.2.1.3.2.6,0,.9,0,.2-.1.1-.2,0,0-.3,0-.6,0-.9Z"/>
  <path class="st49" d="M50.3,35.9c0-.4,0-.9,0-1.3s-.1-.6.2-.6c-.2.7.2,1.4.3,2s-.1.9,0,1.3.4,2.1.2,2.5,0,.3-.4.2c-.2-.2.3-2.8-.2-3.3,0-.3,0-.6,0-.9Z"/>
  <path class="st49" d="M50.5,31.3s-.2.2-.2.4.5.7.4.8c-.3.3-.4-.3-.5-.5,0-.1,0-.3-.2-.3,0-.5,0-1,0-1.6s0-.3,0-.5c.5.3.5,1.1.5,1.7Z"/>
  <path class="st49" d="M50.7,41.8l.3-1.4c.2.5.2,1.1-.3,1.4Z"/>
  <path class="st148" d="M50.7,43.2c0,0-.1,0-.2,0-.1-.1-.1-.2,0-.3,0-.3,0-.6,0-.9.3.2.2.8.2,1.2Z"/>
  <path class="st121" d="M43.4,24.7c.6-.2,2.7-.3,2,.7l.2.5c2.1,0,3.3.4,3.8,2.5s-.1-.4,0-.4c-.1-.3-.1-.5,0-.7,0-.2.1-.1.2,0,0,.1,0,.2,0,.3.1.3.2.6,0,.9.4,1.6-.5,1-1.1,0-.3-.2-2.2-.1-2.5.4-1.4,2.1-5.7,5.1-6.7,1.1-1.1-.4-.8-1.8-.3-2.6,1-1.6,2.8-2.2,4.4-2.7Z"/>
  <path class="st147" d="M42.3,24.5c0-.2,0-.1.2,0l.7.2c0-.2,0-.1.2,0,0,.7-1.1.6-1.5.8-1.4.6-3.5,2.2-2.8,3.9s.4,0,.6.2,0,.4,0,.6c.7,1.2,1.2,1.7,2.6,1.1s2-1.2,2.3-1.4c.7-.6.8-1.4,1.8-1.8s1.8-.1,2.2,0,.4,1,.9,1.2c.2-.2,0-.6,0-.9,0-.2.1-.1.2,0,0,.5,0,1,0,1.6s0,.6,0,.9h-.2c-.4-1.6-1.4-1.8-3.2-.6-1.3.9-2.6,1.8-4,2.6-1.1.6-3.1.6-3.4-.8-.4-.2-1.8-.9-2-1.2s-.2-.6-.3-.8-.7-.4-.6-.8.3-.3.4-.5c.5-1.1,2.2-2.5,3.2-3.3s1.3-.3,2.2-.5l-.2-.4c.2,0,.3,0,.5,0Z"/>
  <path class="st41" d="M62.1,23.6c.2,0,.1.1,0,.2-.2,0-.5,0-.7,0-.2,0-.3-.1-.5-.1-1.3-.1-1.6-.2-1.3-1.6-2,0-4,.2-6.1.8-.6,0-1.2,0-1.9.2l-7.2.2c-1.6-.5-2.3.9-.3.9,1.2,0,2.4,0,3.6,0,.6,1.1,1.3,2.4,1.6,3.8,0,.2.1.6-.2.5-.3-1.5-1.3-1.9-2.7-2.2s-1,0-1.3-.1-.3-1-.3-1.1.6,0,.2-.3-1.3,0-1.7,0-.1,0-.2,0l-.7-.2c0,0-.1,0-.2,0-.7-.4-1.7-1.1-1.5-2.1.2-.3,4.1-.2,4.8-.2,1.1,0,2.7.4,3.8.4,3.5,0,7-1.6,10.4-1.7s1.9,0,2,1-1.1,1.4.4,1.8Z"/>
  <path class="st65" d="M61.4,23.8c-1,0-2,.1-3,.2v-.3c-.6-.7-3.9-.4-4.8-.2-.4-.1-.8-.1-1.1,0l-3.5.3c-.5.2-.5.3-.2.7v.2c0,.4,0,1.3.3,1.6,0,0,.1.2.2.3,0,.3,0,.5,0,.7,0,.2,0,.5,0,.7-.4-.8-.7-1.8-1.1-2.6s-.4-.3-.5-.5,0-.3,0-.3c-.2-.1-3.3,0-3.9,0s-1.7-.3-1.1-1.3,1.2-.3,1.7-.3c2.6-.2,5.2,0,7.9-.2s3.7-.8,5.3-.9,2,0,2.1,0c.6.3-.1,1.1.2,1.5s1.2,0,1.5.5Z"/>
  <path class="st27" d="M50,25.9c1.1-.6,2.8-1,4.1-.9s1.2.2,1.3,1.1,0,1.6,0,1.8c-.3,1.4-1.8.9-2.8,1.4-.4,0-1.7-.7-1.9-1-.3-.5,0-1.7-.6-2.4Z"/>
  <path class="st39" d="M48.9,24.5c-.7,0-.6-.1-.7-.9.7.4.5-.1.6-.1,1.1-.2,2.8,0,3.6-.2s0-.4.4-.4.6.3.7.3c.5,0,1.8-.4,2.4-.5,1.6,0,2.7.8,4.2.9l-1.7.3c0,0-.1,0-.2,0-2.7-.2-5.8-.2-8.5.2s0,0,0,.2c-.1,0-.4.2-.9.2Z"/>
  <path class="st190" d="M58.3,24c-2.8.1-5.7.2-8.5.3l-.9-.2c1.6-.4,3.5-.5,5.1-.5s2.5,0,3.6,0,.5,0,.7.3Z"/>
  <path class="st39" d="M49.3,26.2c0,1-.6-.8-.6-.9,0-.3-.2-.5.2-.6.3.5.2,1.1.3,1.6Z"/>
  <path class="st27" d="M49.8,28.5h-.2c0-.3,0-.6,0-.9.3.1.2.6.2.9Z"/>
  <path class="st27" d="M49.6,27.3h-.2v-.7c0,.2.1.3.2.7Z"/>
  <path class="st40" d="M62.5,23.6v.2c-.1,0-.2,0-.3,0v-.2c0,0,.2,0,.3,0Z"/>
  <path class="st110" d="M49.1,30.4c-.7,0-1,.4-1.3.6-.7.3-1.4.5-2.1,1-2,1.4-3,4.5-5.9,4.5s-1-.3-1.3-.3c-.7,0-2.9,1-3.6,1.4s-.6.8-1.2.7c.2.5.4.9,0,1.4-1.1,1-2.3,2-3.5,2.9-.9,1.8-1.5,2-1.6.6,0-.2,0-.3,0-.5,0-.5,0-.9,0-1.4.6,0,.5-.5.7-.8s.9-.8.9-.8c.3-.2.7-.1.8-.2s.5-1.5.6-1.7c.2-.3.6-.3.6-.4.2-.3-.8-.7-.7-1.2,1.2.8.9.1,1.2-.2.6-.8,1.4-1.4,2.2-1.9,1.8.1,3.7.4,5.5.7.8.1,1.6-.2,2.2-.7,1.2-1.5,2.1-2.6,3.9-3.6s2.8-1.5,2.7,0Z"/>
  <path class="st155" d="M39,32.1c.3.2.9.7,1.3.8,1.8.5,4.4-2.1,5.9-2.9s1.8-.8,1.9-.9c1.4-.3,1.1.8,1.6,1.7,0,.2,0,.6,0,.7-.3-.3-.3-.8-.6-1.2s-.5-.4-.9-.3c-1.1.2-2.7,1.3-3.5,2-1.3,1.1-1.4,2.5-3.5,3s-4.9-.9-6.6-.7-.6.6-1,1-.7.3-1,.6c0-.4.2-.5.4-.7.6-.6.7-.7,1.4-1.2,1.1-.9.2-1.5.6-1.8.9-.7,1.9.5,2.7.4s.8-.6,1.3-.5Z"/>
  <path class="st47" d="M28.6,35.8c0,.2,0,.3,0,.5l-.2,1c0,1.3,0,2.5,0,3.8s0,.9,0,1.4l-.4-3.3.6-4.1c.2.2.1.5,0,.7Z"/>
  <path class="st110" d="M28.4,37.3c0-.3-.1-.9.2-1,0,.3.1.9-.2,1Z"/>
  <path class="st110" d="M28.6,35.8c0-.2,0-.5,0-.7s0-.1,0-.2c0-.2.1-.1.2,0,0,.3.1.7-.2.9Z"/>
  <path class="st47" d="M28.8,34.9h-.2c0-.4.1-.5.2-.7,0,.2,0,.5,0,.7Z"/>
  <path class="st0" d="M34.2,44.8c.2.1.4.2.5.4,1,1,1.6,2.1,1.9,3.6.5,2.8-.5,5.2-3,6.6-.3,0-.7-1.1-1.1-1.4s-.7-.3-.8-.4c0-.1,0-.6-.1-.8s-.4-.4-.4-.8c-.5-2.7.8-5.6,2.9-7.2Z"/>
  <path class="st47" d="M33.6,38.2c.4.4,1,1.1,1.4,1.4-.3,0,.1.6,0,.7s-.4,0-.6.2c-.8.6-1.5,1.5-2.2,2.2s-2.1,1.8-2.2,2c-.2.3.1.6,0,1s-.5,1.3-.6,1.5-.3.4-.6.6c-.4-1.1-.5-3.4-.5-4.7l.5.9c.3-1.9,2-2.4,3.2-3.5s2.2-1.7,1-2.5c.1-.1.4.2.5.3Z"/>
  <path class="st12" d="M50.5,43.2c-.2,0-.2-.2-.2-.3h.2c0,.1,0,.2,0,.3Z"/>
  <path class="st94" d="M51.2,55.7c.2.2.3.5.5.7h-.2c0,0-.3-.1-.3-.2-.5.2-1.3-.7-1-1.2h.2c.4-.2.7,0,.9.7Z"/>
  <path class="st19" d="M50.1,55c.3.3.7.9,1,1.2-.4,1-3.3,2.8-4.2,2.6s-1-.9-1.1-1c-.8-.9-.9-2.5-.4-3.6s1.5-1.6,2.3-1.4,2,1.8,2.4,2.2Z"/>
  <path class="st19" d="M51.2,55.7c-.2-.2-.6-.5-.9-.7s-1.9-1.9-1.9-2,.1-.6.2-.6c1,0,2.6,2.3,2.5,3.3Z"/>
  <path class="st121" d="M43.2,24.7c-.2,0-.6,0-.7-.2.2,0,.6,0,.7.2Z"/>
</svg>